<svg width="160" height="106" viewBox="0 0 160 106" fill="none" xmlns="http://www.w3.org/2000/svg"> <g clip-path="url(#clip0_368_3)"> <g style="mix-blend-mode:multiply"> <path fill-rule="evenodd" clip-rule="evenodd" d="M50.7266 41.5938C48.4573 41.5938 46.6235 43.4333 46.6235 45.6953C46.6235 46.5583 45.9257 47.2578 45.065 47.2578C44.2043 47.2578 43.5066 46.5583 43.5066 45.6953C43.5066 41.701 46.7423 38.4688 50.7266 38.4688C52.7683 38.4688 54.6149 39.3191 55.9267 40.682C56.5244 41.303 56.5068 42.2921 55.8875 42.8913C55.2681 43.4906 54.2816 43.473 53.6839 42.852C52.9359 42.0749 51.8891 41.5938 50.7266 41.5938Z" fill="#FABD05"/> </g> <g style="mix-blend-mode:multiply"> <path d="M43.4285 37.6875C44.7195 37.6875 45.7661 36.6382 45.7661 35.3438C45.7661 34.0493 44.7195 33 43.4285 33C42.1374 33 41.0908 34.0493 41.0908 35.3438C41.0908 36.6382 42.1374 37.6875 43.4285 37.6875Z" fill="#1F80FF"/> </g> <g style="mix-blend-mode:multiply"> <path d="M60.4934 37.6875C61.7844 37.6875 62.8311 36.6382 62.8311 35.3438C62.8311 34.0493 61.7844 33 60.4934 33C59.2023 33 58.1557 34.0493 58.1557 35.3438C58.1557 36.6382 59.2023 37.6875 60.4934 37.6875Z" fill="#FF1F41"/> </g> <g style="mix-blend-mode:multiply"> <path d="M43.4675 53C45.3826 53 46.9351 49.712 46.9351 45.6562C46.9351 41.6004 45.3826 38.3125 43.4675 38.3125C41.5525 38.3125 40 41.6004 40 45.6562C40 49.712 41.5525 53 43.4675 53Z" fill="#FF1F41"/> </g> <g style="mix-blend-mode:multiply"> <path d="M45.8643 40.3529C46.3748 41.3887 46.7362 42.7513 46.873 44.2826C46.7113 44.7232 46.623 45.1995 46.623 45.6957C46.6228 46.5584 45.925 47.2582 45.0644 47.2582C44.2041 47.2579 43.507 46.5583 43.5068 45.6957C43.5068 43.578 44.4159 41.6741 45.8643 40.3529Z" fill="black" fill-opacity="0.4"/> </g> <path d="M50.7266 38.4688C52.7682 38.4688 54.615 39.3188 55.9268 40.6816C56.5244 41.3026 56.507 42.2924 55.8877 42.8916C55.2684 43.4908 54.2813 43.4725 53.6836 42.8516C52.9356 42.0746 51.8888 41.5938 50.7266 41.5938C48.9552 41.5938 47.4487 42.7145 46.873 44.2822C46.7362 42.7509 46.3749 41.3883 45.8643 40.3525C47.1477 39.1819 48.8547 38.4688 50.7266 38.4688Z" fill="#FABD05"/> <g style="mix-blend-mode:multiply"> <path d="M60.4936 53C62.4302 53 64.0001 49.712 64.0001 45.6562C64.0001 41.6004 62.4302 38.3125 60.4936 38.3125C58.557 38.3125 56.9871 41.6004 56.9871 45.6562C56.9871 49.712 58.557 53 60.4936 53Z" fill="#1F80FF"/> </g> <g style="mix-blend-mode:multiply"> <path d="M59.2148 40.0751C60.0753 40.0599 60.7855 40.7466 60.8008 41.6093C60.8344 43.5031 60.1283 45.4138 58.6846 46.8613C58.2232 47.3238 57.7137 47.709 57.1738 48.0205C57.0534 47.2785 56.9873 46.4834 56.9873 45.6562C56.9873 45.0391 57.0233 44.4398 57.0918 43.8671C57.4991 43.193 57.6981 42.4289 57.6846 41.665C57.6693 40.8022 58.3543 40.0905 59.2148 40.0751Z" fill="black" fill-opacity="0.4"/> </g> <g style="mix-blend-mode:multiply"> <path d="M57.0913 43.8684C57.023 44.4407 56.9868 45.0399 56.9868 45.6565C56.9868 46.4833 57.053 47.2781 57.1734 48.0198C54.4165 49.6101 50.8377 49.2312 48.4819 46.8694C47.8736 46.2592 47.8734 45.2695 48.4819 44.6594C49.0905 44.0494 50.0774 44.0496 50.6861 44.6594C52.2813 46.2588 54.8753 46.26 56.48 44.6516C56.7201 44.4109 56.9231 44.1467 57.0913 43.8684Z" fill="#06D93B"/> </g> </g> <defs> <clipPath id="clip0_368_3"> <rect width="24" height="20" fill="white" transform="translate(40 33)"/> </clipPath> </defs> </svg>