<svg width="24" height="20" viewBox="0 0 24 20" fill="none" xmlns="http://www.w3.org/2000/svg">
<g style="mix-blend-mode:multiply">
<path fill-rule="evenodd" clip-rule="evenodd" d="M10.7266 8.59375C8.45733 8.59375 6.62347 10.4333 6.62347 12.6953C6.62347 13.5583 5.92574 14.2578 5.06503 14.2578C4.20433 14.2578 3.50659 13.5583 3.50659 12.6953C3.50659 8.70101 6.74229 5.46875 10.7266 5.46875C12.7683 5.46875 14.6149 6.31908 15.9267 7.68199C16.5244 8.30295 16.5068 9.29211 15.8875 9.89135C15.2681 10.4906 14.2816 10.473 13.6839 9.85203C12.9359 9.07489 11.8891 8.59375 10.7266 8.59375Z" fill="#FABD05"/>
</g>
<g style="mix-blend-mode:multiply">
<ellipse cx="3.42848" cy="2.34375" rx="2.33766" ry="2.34375" fill="#1F80FF"/>
</g>
<g style="mix-blend-mode:multiply">
<ellipse cx="20.4934" cy="2.34375" rx="2.33766" ry="2.34375" fill="#FF1F41"/>
</g>
<g style="mix-blend-mode:multiply">
<ellipse cx="3.46753" cy="12.6562" rx="3.46753" ry="7.34375" fill="#FF1F41"/>
</g>
<g style="mix-blend-mode:multiply">
<path d="M5.86426 7.35291C6.37484 8.38868 6.73622 9.75126 6.87305 11.2826C6.71133 11.7232 6.62305 12.1995 6.62305 12.6957C6.62284 13.5584 5.92503 14.2582 5.06445 14.2582C4.2041 14.2579 3.50704 13.5583 3.50684 12.6957C3.50684 10.578 4.41589 8.67406 5.86426 7.35291Z" fill="black" fill-opacity="0.4"/>
</g>
<path d="M10.7266 5.46875C12.7682 5.46878 14.615 6.31879 15.9268 7.68164C16.5244 8.30258 16.507 9.29236 15.8877 9.8916C15.2684 10.4908 14.2813 10.4725 13.6836 9.85156C12.9356 9.07462 11.8888 8.59378 10.7266 8.59375C8.95518 8.59375 7.44866 9.71448 6.87305 11.2822C6.73618 9.7509 6.37488 8.38826 5.86426 7.35254C7.14775 6.18187 8.85472 5.46875 10.7266 5.46875Z" fill="#FABD05"/>
<g style="mix-blend-mode:multiply">
<ellipse cx="20.4936" cy="12.6562" rx="3.50649" ry="7.34375" fill="#1F80FF"/>
</g>
<g style="mix-blend-mode:multiply">
<path d="M19.2148 7.07514C20.0753 7.05991 20.7855 7.74659 20.8008 8.60932C20.8344 10.5031 20.1283 12.4138 18.6846 13.8613C18.2232 14.3238 17.7137 14.709 17.1738 15.0205C17.0534 14.2785 16.9873 13.4834 16.9873 12.6562C16.9873 12.0391 17.0233 11.4398 17.0918 10.8671C17.4991 10.193 17.6981 9.42894 17.6846 8.66498C17.6693 7.80217 18.3543 7.0905 19.2148 7.07514Z" fill="black" fill-opacity="0.4"/>
</g>
<g style="mix-blend-mode:multiply">
<path d="M17.0913 10.8684C17.023 11.4407 16.9868 12.0399 16.9868 12.6565C16.9868 13.4833 17.053 14.2781 17.1734 15.0198C14.4165 16.6101 10.8377 16.2312 8.48195 13.8694C7.87362 13.2592 7.87344 12.2695 8.48195 11.6594C9.09046 11.0494 10.0774 11.0496 10.6861 11.6594C12.2813 13.2588 14.8753 13.26 16.48 11.6516C16.7201 11.4109 16.9231 11.1467 17.0913 10.8684Z" fill="#06D93B"/>
</g>
</svg>
