<svg width="24" height="24" viewbox="0 0 24 24" fill="none" xmlns="http://www.w3.org/2000/svg"><path fill-rule="nonzero" d="m1.5 2c1.5 1.72386 1.72386 1.5 2 1.5h22c22.2761 1.5 22.5 1.72386 22.5 2v5.63636c22.5 5.77762 22.4403 5.91228 22.3355 6.00707l15 12.6463v22c15 22.15 14.9327 22.292 14.8166 22.387c14.7006 22.4819 14.548 22.5198 14.401 22.4901l9.90099 21.581c9.66773 21.5339 9.5 21.3289 9.5 21.0909v12.656l1.6765 6.01761c1.56454 5.92261 1.5 5.7832 1.5 5.63636v2zm2.5 2.5v5.40488l10.3235 12.0433c10.4355 12.1383 10.5 12.2777 10.5 12.4245v20.6818l14 21.3889v12.4245c14 12.2832 14.0597 12.1486 14.1645 12.0538l21.5 5.41452v2.5h2.5z" fill="black"/></svg>