<svg width="24" height="24" viewBox="0 0 24 24" fill="none" xmlns="http://www.w3.org/2000/svg"> <path d="M10.1889 0.942825L10.9986 0.0571899L14.1392 2.92858L10.8424 5.94282L10.0327 5.05719L11.6181 3.60766C6.60386 3.80823 2.60039 7.9366 2.60039 13C2.60039 18.1915 6.80891 22.4 12.0004 22.4C17.1919 22.4 21.4004 18.1915 21.4004 13C21.4004 10.5685 20.4779 8.35374 18.9629 6.68453L19.8514 5.87802C21.5591 7.7594 22.6004 10.2588 22.6004 13C22.6004 18.8542 17.8546 23.6 12.0004 23.6C6.14617 23.6 1.40039 18.8542 1.40039 13C1.40039 7.21775 6.03024 2.51684 11.7851 2.40217L10.1889 0.942825Z" fill="black"/> <path d="M14.2514 0.942825L15.0611 0.0571899L18.2017 2.92858L14.9049 5.94282L14.0952 5.05719L16.4233 2.92858L14.2514 0.942825Z" fill="black"/> <path fill-rule="evenodd" clip-rule="evenodd" d="M18.0001 13.5C17.994 16.3669 16.7987 18 14.7557 18C12.7127 18 11.5113 16.3669 11.5113 13.5C11.5113 10.6512 12.7249 9 14.7557 9C16.7804 9 17.994 10.6512 18.0001 13.5ZM14.7557 10.125C13.5665 10.131 12.853 11.3226 12.853 13.5C12.8469 15.6835 13.5604 16.8508 14.7557 16.8508C15.9449 16.8508 16.6584 15.6835 16.6584 13.5C16.6584 11.3226 15.9388 10.131 14.7557 10.125Z" fill="black"/> <path d="M8.19549 9.12097H9.51276V17.879H8.1589V10.4516H8.11012L6.00005 11.8185V10.5484L8.19549 9.12097Z" fill="black"/> </svg>