<svg width="24" height="24" viewBox="0 0 24 24" fill="none" xmlns="http://www.w3.org/2000/svg"> <path d="M9.74864 1.19282L8.93892 0.30719L5.79834 3.17858L9.09517 6.19282L9.90489 5.30719L7.57673 3.17858L9.74864 1.19282Z" fill="black"/> <path d="M13.8114 1.19282L13.0017 0.30719L9.86108 3.17858L13.1579 6.19282L13.9676 5.30719L12.3822 3.85766C17.3964 4.05823 21.3999 8.1866 21.3999 13.25C21.3999 18.4415 17.1914 22.65 11.9999 22.65C6.80843 22.65 2.5999 18.4415 2.5999 13.25C2.5999 10.8185 3.52237 8.60374 5.03744 6.93453L4.14888 6.12802C2.44123 8.0094 1.3999 10.5088 1.3999 13.25C1.3999 19.1042 6.14568 23.85 11.9999 23.85C17.8541 23.85 22.5999 19.1042 22.5999 13.25C22.5999 7.46775 17.9701 2.76684 12.2152 2.65217L13.8114 1.19282Z" fill="black"/> <path fill-rule="evenodd" clip-rule="evenodd" d="M18 13.5C17.9939 16.3669 16.7986 18 14.7556 18C12.7126 18 11.5112 16.3669 11.5112 13.5C11.5112 10.6512 12.7248 9 14.7556 9C16.7803 9 17.9939 10.6512 18 13.5ZM14.7556 10.125C13.5664 10.131 12.8529 11.3226 12.8529 13.5C12.8468 15.6835 13.5603 16.8508 14.7556 16.8508C15.9448 16.8508 16.6583 15.6835 16.6583 13.5C16.6583 11.3226 15.9387 10.131 14.7556 10.125Z" fill="black"/> <path d="M8.19544 9.12097H9.51271V17.879H8.15885V10.4516H8.11006L6 11.8185V10.5484L8.19544 9.12097Z" fill="black"/> </svg>