<svg width="24" height="24" viewBox="0 0 24 24" fill="none" xmlns="http://www.w3.org/2000/svg"> <path fill-rule="evenodd" clip-rule="evenodd" d="M11 2.40002C6.25038 2.40002 2.40002 6.25038 2.40002 11C2.40002 15.7497 6.25038 19.6 11 19.6C13.1589 19.6 15.132 18.8045 16.6422 17.4907L20.5757 21.4243L21.4243 20.5757L17.4907 16.6422C18.8045 15.132 19.6 13.1589 19.6 11C19.6 6.25038 15.7497 2.40002 11 2.40002ZM3.60002 11C3.60002 6.91312 6.91312 3.60002 11 3.60002C15.0869 3.60002 18.4 6.91312 18.4 11C18.4 15.0869 15.0869 18.4 11 18.4C6.91312 18.4 3.60002 15.0869 3.60002 11Z" fill="black"/> </svg>