<svg width="24" height="24" viewBox="0 0 24 24" fill="none" xmlns="http://www.w3.org/2000/svg"> <path fill-rule="evenodd" clip-rule="evenodd" d="M21.1655 21.8716L16.1655 17.3716L16.8345 16.6284L21.8345 21.1284L21.1655 21.8716Z" fill="black"/> <path fill-rule="evenodd" clip-rule="evenodd" d="M10.5 2.5C6.08172 2.5 2.5 6.08172 2.5 10.5C2.5 14.9183 6.08172 18.5 10.5 18.5C14.9183 18.5 18.5 14.9183 18.5 10.5C18.5 6.08172 14.9183 2.5 10.5 2.5ZM1.5 10.5C1.5 5.52944 5.52944 1.5 10.5 1.5C15.4706 1.5 19.5 5.52944 19.5 10.5C19.5 15.4706 15.4706 19.5 10.5 19.5C5.52944 19.5 1.5 15.4706 1.5 10.5Z" fill="black"/> </svg>