<svg width="24" height="24" viewBox="0 0 24 24" fill="none" xmlns="http://www.w3.org/2000/svg"> <path fill-rule="evenodd" clip-rule="evenodd" d="M21.5 9.40846C21.5 3.82576 16.5956 -0.587118 10.8981 0.0637592L10.8965 0.0639424C6.58293 0.570641 3.07364 4.04076 2.56082 8.32014L2.56028 8.32507C2.19566 11.6463 3.50863 14.6959 5.86128 16.5884L5.86969 16.5949C6.359 16.9717 6.64463 17.5737 6.64463 18.2564V20.5C6.64463 22.433 8.21163 24 10.1446 24H13.8434C15.7764 24 17.3434 22.433 17.3434 20.5V18.325C17.3434 17.6756 17.6724 17.0497 18.2129 16.5741C20.1807 14.8423 21.5 12.3091 21.5 9.40846ZM3.55404 8.43666C4.01212 4.62395 7.15253 1.51097 11.0124 1.0572C16.1217 0.473999 20.5 4.42878 20.5 9.40846C20.5 11.9949 19.3254 14.2629 17.5522 15.8234C17.0226 16.2895 16.6077 16.9024 16.4332 17.6H12.49C12.4966 17.5677 12.5 17.5342 12.5 17.5V13.7071L15.3536 10.8535C15.5488 10.6583 15.5488 10.3417 15.3536 10.1464C15.1583 9.95115 14.8417 9.95115 14.6464 10.1464L12 12.7929L9.35355 10.1464C9.15829 9.95115 8.84171 9.95115 8.64645 10.1464C8.45118 10.3417 8.45118 10.6583 8.64645 10.8535L11.5 13.7071V17.5C11.5 17.5342 11.5034 17.5677 11.51 17.6H7.57993C7.4378 16.8924 7.06408 16.2543 6.48428 15.806C4.40619 14.1322 3.22702 11.4228 3.55404 8.43666ZM7.64463 18.6V19.4H16.3434V18.6H7.64463ZM16.3434 20.4H7.64463V20.5C7.64463 21.8807 8.76392 23 10.1446 23H13.8434C15.2241 23 16.3434 21.8807 16.3434 20.5V20.4Z" fill="black"/> </svg>