<svg width="24" height="24" viewBox="0 0 24 24" fill="none" xmlns="http://www.w3.org/2000/svg"> <path fill-rule="evenodd" clip-rule="evenodd" d="M12 23C18.0751 23 23 18.0751 23 12C23 5.92487 18.0751 1 12 1C5.92487 1 1 5.92487 1 12C1 18.0751 5.92487 23 12 23ZM12 24C18.6274 24 24 18.6274 24 12C24 5.37258 18.6274 0 12 0C5.37258 0 0 5.37258 0 12C0 18.6274 5.37258 24 12 24Z" fill="black"/> <path fill-rule="evenodd" clip-rule="evenodd" d="M10.0029 15H11.4686L9.42857 9H8.03143L6 15H7.46571L7.67143 14.2714H9.79714L10.0029 15ZM7.98 13.1829L8.73429 10.5171L9.48857 13.1829H7.98Z" fill="black"/> <path fill-rule="evenodd" clip-rule="evenodd" d="M12.1395 15H14.4023C16.3395 15 17.4623 13.62 17.4623 12C17.4623 10.38 16.3309 9 14.4023 9H12.1395V15ZM13.528 13.8343V10.1657H14.2737C15.4566 10.1657 16.0309 11.0486 16.0309 12C16.0309 12.9514 15.4566 13.8343 14.2737 13.8343H13.528Z" fill="black"/> </svg>