<svg width="24" height="24" viewBox="0 0 24 24" fill="none" xmlns="http://www.w3.org/2000/svg"> <path d="M8.7 8.89994C9.0866 8.89994 9.4 8.36268 9.4 7.69994C9.4 7.0372 9.0866 6.49994 8.7 6.49994C8.3134 6.49994 8 7.0372 8 7.69994C8 8.36268 8.3134 8.89994 8.7 8.89994Z" fill="black"/> <path d="M15.4 7.69994C15.4 8.36268 15.0866 8.89994 14.7 8.89994C14.3134 8.89994 14 8.36268 14 7.69994C14 7.0372 14.3134 6.49994 14.7 6.49994C15.0866 6.49994 15.4 7.0372 15.4 7.69994Z" fill="black"/> <path d="M8.49992 11.5C8.07565 11.9242 8.07619 11.9247 8.07619 11.9247L8.07792 11.9265L8.08058 11.9291L8.08707 11.9354L8.10479 11.9521C8.11874 11.9649 8.13696 11.9812 8.15958 12.0004C8.20484 12.0388 8.26771 12.0889 8.34922 12.1464C8.51236 12.2615 8.7496 12.4064 9.06874 12.5482C9.70915 12.8329 10.6673 13.1 11.9999 13.1C13.3325 13.1 14.2907 12.8329 14.9311 12.5482C15.2502 12.4064 15.4875 12.2615 15.6506 12.1464C15.7321 12.0889 15.795 12.0388 15.8403 12.0004C15.8629 11.9812 15.8811 11.9649 15.895 11.9521L15.9128 11.9354L15.9193 11.9291L15.9219 11.9265L15.9237 11.9247C15.9237 11.9247 15.9242 11.9242 15.4999 11.5C15.0757 11.0757 15.0766 11.0747 15.0766 11.0747L15.0776 11.0738L15.0791 11.0723L15.0811 11.0703C15.0792 11.0721 15.0735 11.0773 15.0639 11.0854C15.0447 11.1017 15.0099 11.1298 14.9586 11.166C14.8561 11.2384 14.6871 11.3435 14.4437 11.4517C13.9592 11.667 13.1673 11.9 11.9999 11.9C10.8325 11.9 10.0407 11.667 9.5561 11.4517C9.31274 11.3435 9.14373 11.2384 9.04124 11.166C8.98994 11.1298 8.95515 11.1017 8.93596 11.0854C8.92636 11.0773 8.92059 11.072 8.91866 11.0703L8.92073 11.0723L8.92228 11.0738L8.92368 11.0752C8.92368 11.0752 8.92418 11.0757 8.49992 11.5Z" fill="black"/> <path fill-rule="evenodd" clip-rule="evenodd" d="M5.9999 1.39996C3.45939 1.39996 1.3999 3.45945 1.3999 5.99996V13C1.3999 15.5405 3.45939 17.6 5.9999 17.6H6.3999V23.7104L11.2883 17.6H17.9999C20.5404 17.6 22.5999 15.5405 22.5999 13V5.99996C22.5999 3.45945 20.5404 1.39996 17.9999 1.39996H5.9999ZM2.5999 5.99996C2.5999 4.1222 4.12213 2.59996 5.9999 2.59996H17.9999C19.8777 2.59996 21.3999 4.1222 21.3999 5.99996V13C21.3999 14.8777 19.8777 16.4 17.9999 16.4L10.7115 16.4L7.5999 20.2895V16.4L5.9999 16.4C4.12213 16.4 2.5999 14.8777 2.5999 13V5.99996Z" fill="black"/> </svg>