<svg width="24" height="24" viewBox="0 0 24 24" fill="none" xmlns="http://www.w3.org/2000/svg"> <path d="M12.3864 3.79754C14.4757 1.70823 17.8632 1.70823 19.9525 3.79754C22.0418 5.88684 22.0418 9.27428 19.9525 11.3636L10.7601 20.556C9.25659 22.0595 6.8189 22.0595 5.31538 20.556C3.81186 19.0525 3.81186 16.6148 5.31538 15.1112L13.4471 6.97956C14.3648 6.06183 15.8527 6.06183 16.7705 6.97956C17.6882 7.8973 17.6882 9.38523 16.7705 10.303L10.5833 16.4901L9.73476 15.6416L15.9219 9.45444C16.371 9.00533 16.371 8.27719 15.9219 7.82809C15.4728 7.37899 14.7447 7.37899 14.2956 7.82809L6.16391 15.9598C5.12902 16.9947 5.12902 18.6726 6.16391 19.7074C7.1988 20.7423 8.87669 20.7423 9.91158 19.7074L19.1039 10.5151C20.7246 8.89438 20.7246 6.26674 19.1039 4.64607C17.4833 3.02539 14.8556 3.02539 13.2349 4.64607L5.9871 11.8939L5.13857 11.0454L12.3864 3.79754Z" fill="black"/> </svg>