<svg width="24" height="24" viewBox="0 0 24 24" fill="none" xmlns="http://www.w3.org/2000/svg"> <path fill-rule="evenodd" clip-rule="evenodd" d="M12 1.40002C6.14581 1.40002 1.40002 6.14581 1.40002 12C1.40002 17.8542 6.14581 22.6 12 22.6C17.8542 22.6 22.6 17.8542 22.6 12C22.6 6.14581 17.8542 1.40002 12 1.40002ZM2.60002 12C2.60002 6.80855 6.80855 2.60002 12 2.60002C14.3799 2.60002 16.5531 3.48442 18.2091 4.94247L4.94247 18.2091C3.48441 16.5531 2.60002 14.3799 2.60002 12ZM5.791 19.0577C7.44699 20.5157 9.62023 21.4 12 21.4C17.1915 21.4 21.4 17.1915 21.4 12C21.4 9.62023 20.5157 7.44699 19.0577 5.791L5.791 19.0577Z" fill="black"/> </svg>