<svg width="24" height="24" viewBox="0 0 24 24" fill="none" xmlns="http://www.w3.org/2000/svg"> <path d="M8.60002 13C8.60002 11.1222 10.1223 9.59999 12 9.59999C13.8778 9.59999 15.4 11.1222 15.4 13C15.4 14.8778 13.8778 16.4 12 16.4C10.1223 16.4 8.60002 14.8778 8.60002 13Z" fill="black"/> <path fill-rule="evenodd" clip-rule="evenodd" d="M9.219 3.39999H14.781L17.281 6.39999H22.6V20.6H1.40002V6.39999H6.719L9.219 3.39999ZM12 8.39999C9.45951 8.39999 7.40002 10.4595 7.40002 13C7.40002 15.5405 9.45951 17.6 12 17.6C14.5405 17.6 16.6 15.5405 16.6 13C16.6 10.4595 14.5405 8.39999 12 8.39999Z" fill="black"/> </svg>