<svg width="24" height="24" viewBox="0 0 24 24" fill="none" xmlns="http://www.w3.org/2000/svg"> <path d="M15.8435 13.8916H16.9064V15.2491H15.4347L14.5354 17.8793H13.3907L12.0008 13.7219L10.6108 17.8793H9.38443L8.56682 15.2491H7.09512V13.8916H8.15801L7.3404 11.4311H8.8121L10.0385 15.7582L11.4285 11.4311H12.5731L13.963 15.7582L15.1895 11.4311H16.6612L15.8435 13.8916Z" fill="black"/> <path fill-rule="evenodd" clip-rule="evenodd" d="M5.28139 0.935926C5.44789 0.603853 5.78265 0.400024 6.16693 0.400024H17.8336C18.2178 0.400024 18.5526 0.603853 18.7191 0.935926C18.8785 1.2539 18.8517 1.61891 18.6986 1.9244L18.6887 1.94408L17.0079 4.75991C17.8015 5.19627 18.5494 5.73034 19.235 6.34706L19.2506 6.36107L19.4318 6.54854C21.4563 8.6429 22.6004 11.4647 22.6004 14.3793C22.6004 17.8292 21.0255 21.0085 18.4005 23.1036C17.9825 23.5101 17.3835 23.6 17.0004 23.6H7.00039C6.61732 23.6 6.01828 23.5101 5.60032 23.1036C2.9753 21.0085 1.40039 17.8292 1.40039 14.3793C1.40039 13.4493 1.55139 12.5973 1.70293 11.7423L1.74861 11.4837L1.75812 11.4514C2.37247 9.36319 3.51485 7.5452 5.09427 6.09286L5.1006 6.08704C5.68759 5.56261 6.31653 5.11217 6.9801 4.73903L5.3118 1.94408L5.30193 1.9244C5.14876 1.61891 5.12196 1.2539 5.28139 0.935926ZM16.2148 5.69658C16.9986 6.10344 17.7397 6.61834 18.4171 7.22542L18.569 7.38257C20.3778 9.25372 21.4004 11.7767 21.4004 14.3793C21.4004 17.4693 19.9862 20.3145 17.6276 22.1851L17.5965 22.2097L17.569 22.2382C17.4879 22.3221 17.2743 22.4 17.0004 22.4H7.00039C6.72648 22.4 6.51291 22.3221 6.43178 22.2382L6.40426 22.2097L6.37323 22.1851C4.01458 20.3145 2.60039 17.4693 2.60039 14.3793C2.60039 13.5594 2.7332 12.8081 2.88767 11.9343L2.91875 11.7582C3.47283 9.89571 4.49244 8.2775 5.90334 6.9791C6.4739 6.4698 7.08542 6.04169 7.72932 5.69658H16.2148ZM6.50395 1.60002H17.4965L15.7676 4.49658H8.2329L6.50395 1.60002Z" fill="black"/> </svg>