<svg width="24" height="24" viewBox="0 0 24 24" fill="none" xmlns="http://www.w3.org/2000/svg"> <path fill-rule="evenodd" clip-rule="evenodd" d="M2.65002 4.50002C2.65002 2.5118 4.2618 0.900024 6.25002 0.900024C8.23825 0.900024 9.85002 2.5118 9.85002 4.50002C9.85002 6.48825 8.23825 8.10002 6.25002 8.10002C4.2618 8.10002 2.65002 6.48825 2.65002 4.50002ZM6.25002 2.10002C4.92454 2.10002 3.85002 3.17454 3.85002 4.50002C3.85002 5.82551 4.92454 6.90002 6.25002 6.90002C7.57551 6.90002 8.65002 5.82551 8.65002 4.50002C8.65002 3.17454 7.57551 2.10002 6.25002 2.10002Z" fill="black"/> <path d="M18.7314 8.55943L18.7505 8.56345C20.8476 8.8969 21.9283 10.1421 22.4614 11.2987C22.724 11.8686 22.8537 12.4135 22.9183 12.814C22.9508 13.0153 22.9673 13.1828 22.9757 13.3026C22.9805 13.3709 22.9845 13.5077 22.9845 13.5077V21.4722H21.7845V13.5083C21.7834 13.4677 21.7815 13.4271 21.7786 13.3866C21.7724 13.2979 21.7597 13.1665 21.7336 13.0052C21.6813 12.6806 21.5769 12.2466 21.3716 11.801C20.9701 10.93 20.1833 10.0017 18.5479 9.74632L18.5257 9.74287L18.5062 9.7383L18.5048 9.73798L18.4922 9.73534C18.4792 9.73269 18.4572 9.72844 18.427 9.72327C18.3666 9.71292 18.2733 9.69896 18.1518 9.68684C17.9084 9.66255 17.5544 9.64589 17.1272 9.67953C16.2736 9.74674 15.1349 10.0138 13.9931 10.8173C13.0616 11.4729 12.0302 12.5438 11.14 13.7078C10.2482 14.874 9.53996 16.0792 9.22075 16.98C8.91224 17.8505 8.87081 18.9981 9.30778 19.8942C9.7144 20.7281 10.587 21.452 12.3679 21.4605C13.1967 21.3664 14.1119 20.9561 14.4939 20.1472C14.8708 19.3493 14.8589 17.8805 13.151 15.358L14.1447 14.6852C15.9317 17.3246 16.2318 19.2776 15.579 20.6597C14.936 22.0211 13.4977 22.5492 12.4621 22.6573L12.431 22.6606H12.3998C10.2081 22.6606 8.86807 21.7304 8.22918 20.4202C7.61824 19.1673 7.70156 17.6743 8.08967 16.5791C8.46708 15.5141 9.25599 14.1961 10.1868 12.9789C11.1193 11.7595 12.2358 10.5867 13.3025 9.83601C14.6566 8.88299 16.0142 8.56346 17.033 8.48323C17.5419 8.44315 17.9682 8.46256 18.2709 8.49276C18.4225 8.50789 18.5437 8.52578 18.6295 8.54048C18.6725 8.54783 18.7066 8.55439 18.7314 8.55943Z" fill="black"/> <path d="M2.10002 13.75C2.10002 13.0908 2.38171 12.0743 3.0364 11.2313C3.67404 10.4103 4.65185 9.7675 6.07695 9.7675C6.45596 9.7675 7.18623 9.89265 7.89108 10.2248C8.59485 10.5564 9.18523 11.0511 9.43707 11.7342L10.563 11.3191C10.161 10.2287 9.26119 9.54381 8.40257 9.13924C7.54504 8.73518 6.64069 8.5675 6.07695 8.5675C4.23281 8.5675 2.92216 9.42204 2.08865 10.4953C1.27219 11.5466 0.900024 12.8214 0.900024 13.75V22.1675H2.10002V13.75Z" fill="black"/> <path fill-rule="evenodd" clip-rule="evenodd" d="M18.5 0.900024C16.5118 0.900024 14.9 2.5118 14.9 4.50002C14.9 6.48825 16.5118 8.10002 18.5 8.10002C20.4882 8.10002 22.1 6.48825 22.1 4.50002C22.1 2.5118 20.4882 0.900024 18.5 0.900024ZM16.1 4.50002C16.1 3.17454 17.1745 2.10002 18.5 2.10002C19.8255 2.10002 20.9 3.17454 20.9 4.50002C20.9 5.82551 19.8255 6.90002 18.5 6.90002C17.1745 6.90002 16.1 5.82551 16.1 4.50002Z" fill="black"/> </svg>