<svg width="24" height="24" viewBox="0 0 24 24" fill="none" xmlns="http://www.w3.org/2000/svg"> <path d="M23.0999 1.90002H9.90002V8.39856H0.900024V20.9984H2.10002V9.59856H9.90002V20.9998H11.1V3.10002H21.8999V9.99994H23.0999V1.90002Z" fill="black"/> <path d="M19.9997 6.60002H12.9998V5.40002H19.9997V6.60002Z" fill="black"/> <path d="M3.50002 12.6H8.50002V11.4H3.50002V12.6Z" fill="black"/> <path d="M12.9998 9.59856H16.4997V8.39856H12.9998V9.59856Z" fill="black"/> <path d="M8.50002 15.1H3.50002V13.9H8.50002V15.1Z" fill="black"/> <path d="M17.1 15.75C17.1 15.4187 16.8314 15.15 16.5 15.15C16.1687 15.15 15.9 15.4187 15.9 15.75V16C15.9 16.3314 16.1687 16.6 16.5 16.6C16.8314 16.6 17.1 16.3314 17.1 16V15.75Z" fill="black"/> <path d="M18.5 15.15C18.8314 15.15 19.1 15.4187 19.1 15.75V16C19.1 16.3314 18.8314 16.6 18.5 16.6C18.1687 16.6 17.9 16.3314 17.9 16V15.75C17.9 15.4187 18.1687 15.15 18.5 15.15Z" fill="black"/> <path d="M21.1 15.75C21.1 15.4187 20.8314 15.15 20.5 15.15C20.1687 15.15 19.9 15.4187 19.9 15.75V16C19.9 16.3314 20.1687 16.6 20.5 16.6C20.8314 16.6 21.1 16.3314 21.1 16V15.75Z" fill="black"/> <path fill-rule="evenodd" clip-rule="evenodd" d="M13.4 11.9H23.6V20.0211H19.8394L18.2056 22.7383L16.8267 20.0211H13.4V11.9ZM14.6 13.1V18.8211H17.5634L18.2945 20.2617L19.1607 18.8211H22.4V13.1H14.6Z" fill="black"/> </svg>