<svg width="24" height="24" viewBox="0 0 24 24" fill="none" xmlns="http://www.w3.org/2000/svg"> <path d="M3.64954 4.51298C3.64954 4.51298 3.65008 4.51259 4.00001 4.99998C4.34993 5.48738 4.35041 5.48704 4.35041 5.48704L4.34955 5.48769C4.31752 5.51204 4.28613 5.53717 4.25521 5.56293C4.1851 5.62136 4.0805 5.71315 3.95278 5.83923C3.69713 6.0916 3.35034 6.47988 3.00182 7.01159C2.30734 8.07112 1.60001 9.70844 1.60001 12C1.60001 14.2915 2.30734 15.9288 3.00182 16.9884C3.35034 17.5201 3.69713 17.9084 3.95278 18.1607C4.0805 18.2868 4.1851 18.3786 4.25521 18.437C4.29026 18.4662 4.31663 18.4871 4.33291 18.4996L4.34955 18.5123L4.35041 18.5129C4.35041 18.5129 4.34993 18.5126 4.00001 19C3.65008 19.4874 3.64954 19.487 3.64954 19.487L3.6475 19.4855L3.64383 19.4828L3.63325 19.475C3.6248 19.4688 3.61356 19.4603 3.59973 19.4496C3.57206 19.4282 3.53398 19.3981 3.48699 19.3589C3.39305 19.2806 3.26327 19.1663 3.10974 19.0147C2.80288 18.7118 2.39968 18.2587 1.9982 17.6462C1.19268 16.4173 0.400009 14.5546 0.400009 12C0.400009 9.44538 1.19268 7.58269 1.9982 6.35376C2.39968 5.74124 2.80288 5.28817 3.10974 4.98525C3.26327 4.83369 3.39305 4.71935 3.48699 4.64106C3.53818 4.5984 3.5902 4.55669 3.64383 4.51713L3.6475 4.51445L3.64954 4.51298Z" fill="black"/> <path d="M19.6396 5.47965C19.6396 5.47965 19.64 5.47998 20 4.99998C20.36 4.51998 20.3605 4.52036 20.3605 4.52036L20.3625 4.52183L20.366 4.52452C20.4083 4.55707 20.4499 4.5904 20.521 4.65172C20.6142 4.73217 20.7432 4.84954 20.8959 5.00443C21.2013 5.31398 21.603 5.77502 22.0034 6.39222C22.8061 7.62973 23.6 9.49143 23.6 12C23.6 14.5085 22.8061 16.3702 22.0034 17.6077C21.603 18.2249 21.2013 18.686 20.8959 18.9955C20.7432 19.1504 20.6142 19.2678 20.521 19.3482C20.4743 19.3885 20.4366 19.4195 20.4093 19.4414C20.3957 19.4524 20.3846 19.4611 20.3763 19.4675L20.366 19.4754L20.3625 19.4781L20.3611 19.4792C20.3611 19.4792 20.36 19.48 20 19C19.64 18.52 19.6396 18.5203 19.6396 18.5203L19.6409 18.5193L19.6581 18.5057C19.6747 18.4923 19.7015 18.4704 19.7369 18.4398C19.8077 18.3787 19.9131 18.2831 20.0416 18.1529C20.2988 17.8921 20.647 17.4938 20.9966 16.9547C21.6939 15.8797 22.4 14.2414 22.4 12C22.4 9.75853 21.6939 8.12023 20.9966 7.04525C20.647 6.50619 20.2988 6.10785 20.0416 5.84709C19.9146 5.71837 19.7828 5.59299 19.6409 5.48071L19.6396 5.47965Z" fill="black"/> <path d="M16.7722 8.70322C17.388 9.33187 17.9909 10.2879 18.1144 11.7001C18.2892 13.6976 17.3579 14.9781 16.6738 15.6419L17.5094 16.5031C18.3567 15.681 19.5261 14.0675 19.3098 11.5955C19.1583 9.86372 18.4073 8.65762 17.6295 7.86352L16.7722 8.70322Z" fill="black"/> <path d="M4.69037 11.595C4.84452 9.83309 5.55648 8.63883 6.33468 7.85634L7.18554 8.70254C6.59256 9.29878 6.01391 10.2353 5.8858 11.6996C5.70254 13.7943 6.61665 15.0067 7.30832 15.6246L6.5089 16.5195C5.6053 15.7124 4.46669 14.1517 4.69037 11.595Z" fill="black"/> <path fill-rule="evenodd" clip-rule="evenodd" d="M12 9.39999C10.5641 9.39999 9.40001 10.5641 9.40001 12C9.40001 13.4359 10.5641 14.6 12 14.6C13.4359 14.6 14.6 13.4359 14.6 12C14.6 10.5641 13.4359 9.39999 12 9.39999ZM10.6 12C10.6 11.2268 11.2268 10.6 12 10.6C12.7732 10.6 13.4 11.2268 13.4 12C13.4 12.7732 12.7732 13.4 12 13.4C11.2268 13.4 10.6 12.7732 10.6 12Z" fill="black"/> </svg>