<svg width="25" height="24" viewBox="0 0 25 24" fill="none" xmlns="http://www.w3.org/2000/svg"> <path d="M19.3006 15.5C19.3006 15.1686 19.032 14.9 18.7006 14.9C18.3692 14.9 18.1006 15.1686 18.1006 15.5V18C18.1006 18.1591 18.1638 18.3117 18.2763 18.4243L19.7763 19.9243C20.0106 20.1586 20.3905 20.1586 20.6249 19.9243C20.8592 19.6899 20.8592 19.31 20.6249 19.0757L19.3006 17.7515V15.5Z" fill="black"/> <path fill-rule="evenodd" clip-rule="evenodd" d="M9.81518 1.42482C10.3065 1.88027 10.765 2.44182 11.1582 2.95216C11.6538 2.28625 12.317 1.66604 12.9679 1.21193C13.4211 0.89572 13.9026 0.635675 14.3546 0.501052C14.7771 0.375248 15.3376 0.312948 15.7819 0.647281C16.1689 0.938517 16.3471 1.39232 16.3017 1.86433C16.2576 2.32256 16.011 2.76585 15.623 3.14294C15.4408 3.31997 15.2227 3.4878 14.9673 3.64249H20.2596C21.1439 3.64249 21.8606 4.35881 21.8606 5.24322V9.84616H20.8597V12.3742C22.8275 13.2425 24.201 15.2109 24.201 17.5C24.201 20.5928 21.6938 23.1 18.601 23.1C17.2671 23.1 16.0421 22.6336 15.0802 21.8551H2.74258C1.85852 21.8551 1.1416 21.1385 1.1416 20.2543V9.84616H0.140625V5.24322C0.140625 4.35881 0.857326 3.64249 1.7416 3.64249H7.48252C7.05452 3.40641 6.73204 3.14097 6.50493 2.85691C6.16359 2.43 6.02099 1.93108 6.14221 1.45743C6.26243 0.987704 6.6182 0.645709 7.05594 0.501768C8.13705 0.146269 9.1128 0.773667 9.81518 1.42482ZM7.43079 1.64172C7.83381 1.50919 8.34177 1.69521 8.99935 2.30483C9.28159 2.56649 9.55349 2.87092 9.81353 3.18763C8.39211 2.89035 7.70904 2.44132 7.44218 2.10754C7.28146 1.90652 7.29668 1.78644 7.30474 1.75496C7.3138 1.71955 7.34396 1.67027 7.43079 1.64172ZM13.001 17.5C13.001 18.6702 13.3599 19.7566 13.9737 20.6551H11.6004V9.84616H19.6597V11.9999C19.3168 11.9343 18.9629 11.9 18.601 11.9C15.5082 11.9 13.001 14.4072 13.001 17.5ZM10.4004 4.84249H1.7416C1.5198 4.84249 1.34063 5.02182 1.34063 5.24322V8.64616H10.4004V4.84249ZM11.6004 8.64616V4.84249H20.2596C20.4815 4.84249 20.6606 5.02182 20.6606 5.24322V8.64616H11.6004ZM10.4004 9.84616H2.3416V20.2543C2.3416 20.4755 2.52099 20.6551 2.74258 20.6551H10.4004V9.84616ZM18.601 13.1C16.1709 13.1 14.201 15.0699 14.201 17.5C14.201 19.93 16.1709 21.9 18.601 21.9C21.031 21.9 23.001 19.93 23.001 17.5C23.001 15.0699 21.031 13.1 18.601 13.1ZM15.0649 1.60969L15.0628 1.60914C15.0478 1.6046 14.9513 1.57544 14.6972 1.65113C14.4102 1.7366 14.0462 1.92281 13.6545 2.19608C13.2272 2.4942 12.8075 2.86704 12.4559 3.25991C13.6871 3.04342 14.4153 2.64333 14.7866 2.28241C15.0287 2.04713 15.0972 1.85317 15.1072 1.74936C15.1154 1.66446 15.0903 1.63028 15.0649 1.60969Z" fill="black"/> </svg>