<svg width="24" height="24" viewBox="0 0 24 24" fill="none" xmlns="http://www.w3.org/2000/svg"> <path d="M9.50002 9.10002C9.27911 9.10002 9.10002 9.27911 9.10002 9.50002C9.10002 9.72094 9.27911 9.90002 9.50002 9.90002C9.72094 9.90002 9.90002 9.72094 9.90002 9.50002C9.90002 9.27911 9.72094 9.10002 9.50002 9.10002Z" fill="black"/> <path d="M14.5 14.1C14.2791 14.1 14.1 14.2791 14.1 14.5C14.1 14.7209 14.2791 14.9 14.5 14.9C14.7209 14.9 14.9 14.7209 14.9 14.5C14.9 14.2791 14.7209 14.1 14.5 14.1Z" fill="black"/> <path fill-rule="evenodd" clip-rule="evenodd" d="M3.00002 4.40002C2.11637 4.40002 1.40002 5.11637 1.40002 6.00002V10.6H2.00002C2.77322 10.6 3.40002 11.2268 3.40002 12C3.40002 12.7732 2.77322 13.4 2.00002 13.4H1.40002V18C1.40002 18.8837 2.11637 19.6 3.00002 19.6H21C21.8837 19.6 22.6 18.8837 22.6 18V13.4H22C21.2268 13.4 20.6 12.7732 20.6 12C20.6 11.2268 21.2268 10.6 22 10.6H22.6V6.00002C22.6 5.11637 21.8837 4.40002 21 4.40002H3.00002ZM7.90002 9.50002C7.90002 8.61637 8.61637 7.90002 9.50002 7.90002C10.3837 7.90002 11.1 8.61637 11.1 9.50002C11.1 10.3837 10.3837 11.1 9.50002 11.1C8.61637 11.1 7.90002 10.3837 7.90002 9.50002ZM12.9 14.5C12.9 13.6164 13.6164 12.9 14.5 12.9C15.3837 12.9 16.1 13.6164 16.1 14.5C16.1 15.3837 15.3837 16.1 14.5 16.1C13.6164 16.1 12.9 15.3837 12.9 14.5ZM15.0757 8.07574L8.07574 15.0757L8.92427 15.9243L15.9243 8.92427L15.0757 8.07574Z" fill="black"/> </svg>