<svg width="24" height="24" viewBox="0 0 24 24" fill="none" xmlns="http://www.w3.org/2000/svg"> <path fill-rule="evenodd" clip-rule="evenodd" d="M21.3695 18.7506C21.0568 19.5859 20.3748 20.2732 19.4576 20.5611C17.9488 21.0349 16.3392 20.2587 15.7651 18.807L15.744 18.7495L8.89548 18.7504C8.60603 19.5177 8.00264 20.1586 7.1909 20.475L6.99806 20.5427C5.43347 21.0341 3.75997 20.1728 3.2603 18.608C2.75816 17.0357 3.63489 15.3612 5.20692 14.8675C6.77167 14.3764 8.4451 15.2376 8.94477 16.8024C9.01478 17.0217 9.05799 17.2429 9.07624 17.4627L13.0989 17.462V4.58745L3.4909 4.5877H2.81796C2.47228 4.5877 2.19203 4.30985 2.19203 3.96715V3.29999L14.3622 3.30013L14.3621 5.13204L18.8116 5.13309L23.9823 10.222L23.9811 17.462H24V18.1292C24 18.4719 23.7275 18.7497 23.3913 18.7497L21.3695 18.7506ZM5.57876 16.0979C4.67477 16.3818 4.1797 17.3274 4.46144 18.2095C4.74567 19.0997 5.71493 19.5985 6.62622 19.3123C7.53033 19.0285 8.02536 18.0832 7.74363 17.2009C7.45939 16.3107 6.49008 15.8119 5.57876 16.0979ZM18.0383 16.1163C17.1442 16.397 16.6549 17.3317 16.9332 18.2036C17.2142 19.0836 18.1731 19.577 19.0747 19.2939C19.9128 19.0308 20.3952 18.1931 20.2228 17.3709L20.1795 17.2068L20.119 17.0464C19.779 16.2682 18.8834 15.851 18.0383 16.1163ZM22.7179 11.6968H14.3621V17.462L15.5636 17.4623C15.6549 16.3483 16.3715 15.3421 17.4613 14.9173L17.6553 14.8491C19.2298 14.3549 20.9139 15.2217 21.4166 16.7966C21.4873 17.018 21.5308 17.2414 21.5491 17.4632L22.7179 17.462V11.6968ZM8.48931 11.1135V12.401L5.01347 12.3997L5.01459 12.4011H4.34165C3.99597 12.4011 3.71572 12.1232 3.71572 11.7805V11.1134L8.48931 11.1135ZM18.3006 6.4195H14.3621V10.4093H22.3541L18.3006 6.4195ZM7.57378 7.60928V8.89674L0.625927 8.89684C0.280255 8.89684 0 8.619 0 8.2763V7.60913L7.57378 7.60928Z" fill="black"/> </svg>