<svg width="24" height="24" viewBox="0 0 24 24" fill="none" xmlns="http://www.w3.org/2000/svg"> <path d="M5.00008 15.2H1V14H5.00008V15.2Z" fill="black"/> <path d="M1 9.2H6.50005V8H1V9.2Z" fill="black"/> <path d="M1 3.2L19 3.20001V2.00001L1 2V3.2Z" fill="black"/> <path fill-rule="evenodd" clip-rule="evenodd" d="M6.3999 13.7112C6.3999 9.45248 9.85228 6.0001 14.111 6.0001C18.3697 6.0001 21.8221 9.45248 21.8221 13.7112C21.8221 15.6246 21.1252 17.3752 19.9714 18.7231L23.4241 22.1758L22.5756 23.0243L19.1229 19.5716C17.775 20.7254 16.0244 21.4223 14.111 21.4223C9.85228 21.4223 6.3999 17.9699 6.3999 13.7112ZM14.111 7.2001C10.515 7.2001 7.5999 10.1152 7.5999 13.7112C7.5999 17.3072 10.515 20.2223 14.111 20.2223C17.707 20.2223 20.6221 17.3072 20.6221 13.7112C20.6221 10.1152 17.707 7.2001 14.111 7.2001Z" fill="black"/> </svg>