<svg width="24" height="24" viewBox="0 0 24 24" fill="none" xmlns="http://www.w3.org/2000/svg"> <path d="M9.58037 16L11.737 9.69034L13.8936 16H14.8435L16.0161 12.4812H18V11.5188H16.3368L17.5 8.0279L16.5252 8L14.3686 14.3097L12.2119 8H11.262L9.1587 14.1537L7.48368 8.0279H6.5L7.43241 11.5188H6V12.4812H7.68946L8.62186 15.9721L9.58037 16Z" fill="black"/> <path fill-rule="evenodd" clip-rule="evenodd" d="M12.2204 0.568909L11.9652 0.418884L11.7106 0.570743L11.6885 0.583889L11.6219 0.623365C11.5634 0.657926 11.4775 0.708482 11.3686 0.772149C11.1506 0.899503 10.8403 1.07921 10.4719 1.28821C9.73415 1.70678 8.76723 2.24052 7.84249 2.70638C6.66328 3.30045 5.20339 3.82944 4.02614 4.21234C3.44 4.40299 2.92881 4.55586 2.56446 4.66098C2.38236 4.71352 2.23713 4.75408 2.13777 4.78141C2.0881 4.79507 2.04991 4.80543 2.02432 4.81231L1.99555 4.82002L1.98853 4.82189L1.65076 4.91101L1.61647 5.25725L1.61634 5.25856L1.6159 5.2631L1.61432 5.27982L1.60862 5.34292C1.6038 5.39783 1.59708 5.47805 1.58933 5.58094C1.57383 5.78669 1.55417 6.08335 1.53724 6.44997C1.50341 7.18265 1.48036 8.19765 1.52375 9.32675C1.60947 11.5578 1.95674 14.3363 3.07106 16.2305C4.35591 18.4147 6.54558 20.2208 8.37416 21.4677C9.29448 22.0953 10.1362 22.5898 10.7483 22.9277C11.0545 23.0967 11.3038 23.2269 11.4775 23.3152C11.5643 23.3593 11.6322 23.393 11.6789 23.4159L11.7327 23.4421L11.7472 23.449L11.7512 23.451L11.7528 23.4517L11.9682 23.5538L12.1837 23.4506L12.1888 23.4482L12.2032 23.4412L12.2568 23.4148C12.3033 23.3918 12.3711 23.3579 12.4577 23.3135C12.6309 23.2246 12.8797 23.0937 13.1855 22.9239C13.7968 22.5843 14.6381 22.0879 15.5599 21.4592C17.3919 20.2098 19.591 18.4054 20.9072 16.2364C22.0015 14.433 22.3604 11.6494 22.4636 9.4007C22.516 8.26072 22.5035 7.22891 22.4779 6.48226C22.4652 6.10866 22.4491 5.80573 22.4362 5.5955C22.4297 5.49037 22.424 5.40838 22.4199 5.35226L22.4151 5.28783L22.4137 5.27081L22.4133 5.26621L22.3837 4.91185L22.0397 4.82168L22.0326 4.8198L22.0036 4.81208C21.9778 4.80519 21.9393 4.79483 21.8892 4.78115C21.7891 4.7538 21.6427 4.71321 21.4592 4.66064C21.092 4.55545 20.5769 4.4025 19.9861 4.21178C18.7996 3.82877 17.3276 3.29962 16.1376 2.70557C15.2047 2.23986 14.2256 1.70591 13.4777 1.28713C13.1043 1.07801 12.7895 0.898176 12.5682 0.770713C12.4576 0.706991 12.3704 0.656385 12.3109 0.621783L12.2432 0.582252L12.2204 0.568909ZM11.9671 23C11.753 23.4518 11.7529 23.4518 11.7528 23.4517L11.9671 23ZM12.1837 23.4506C12.1835 23.4507 12.183 23.4509 11.9671 23L12.1837 23.4506ZM2.1141 5.30587L1.61647 5.25725C1.61649 5.25711 1.61654 5.25659 2.1141 5.30587ZM2.53618 6.49609C2.55155 6.16314 2.5692 5.89056 2.58358 5.69534C2.65883 5.67417 2.74528 5.6496 2.84168 5.62179C3.21443 5.51424 3.73657 5.35809 4.33545 5.16331C5.52822 4.77535 7.045 4.22787 8.2924 3.59946C9.23803 3.12307 10.2209 2.58033 10.9654 2.15799C11.3381 1.94654 11.6521 1.76468 11.873 1.63558L11.9689 1.57945L12.0691 1.63724C12.2932 1.76635 12.6116 1.94822 12.9892 2.15966C13.7434 2.58199 14.7379 3.12452 15.691 3.60028C16.9486 4.22811 18.477 4.77544 19.6789 5.16343C20.2823 5.35822 20.8083 5.51439 21.1838 5.62197C21.2794 5.64936 21.3654 5.67362 21.4403 5.69457C21.4524 5.8949 21.4668 6.1749 21.4785 6.51644C21.5034 7.2441 21.5155 8.24823 21.4647 9.35482C21.3616 11.5992 21.0028 14.1512 20.0523 15.7176C18.8478 17.7024 16.7906 19.4095 14.9964 20.6331C14.1052 21.2409 13.2909 21.7214 12.6999 22.0497C12.4046 22.2137 12.1656 22.3394 12.0013 22.4237L11.966 22.4417L11.9308 22.4238C11.7662 22.3401 11.5269 22.2153 11.2315 22.0522C10.6403 21.7258 9.8264 21.2477 8.93755 20.6415C7.1478 19.4211 5.10494 17.7157 3.93298 15.7235C2.95481 14.0607 2.60812 11.5036 2.52301 9.28835C2.48097 8.1943 2.50329 7.20846 2.53618 6.49609Z" fill="black"/> </svg>