<svg width="24" height="24" viewBox="0 0 24 24" fill="none" xmlns="http://www.w3.org/2000/svg"> <path d="M16.2484 11.9605H17.3113V13.3181H15.8396L14.9403 15.9483H13.7956L12.4057 11.7908L11.0157 15.9483H9.78931L8.9717 13.3181H7.5V11.9605H8.56289L7.74528 9.5H9.21698L10.4434 13.8271L11.8333 9.5H12.978L14.3679 13.8271L15.5943 9.5H17.066L16.2484 11.9605Z" fill="black"/> <path fill-rule="evenodd" clip-rule="evenodd" d="M21.8087 8.4313L21.9879 8.39144C21.0455 4.15496 17.1454 1 12.4998 1C7.85423 1 3.95406 4.15495 3.01172 8.39144L3.19122 8.43136C1.89096 9.09172 1 10.4418 1 12C1 14.2085 2.78983 15.999 4.9981 16C6.42893 18.6779 9.25168 20.5 12.5 20.5C15.7396 20.5 18.556 18.6876 19.9904 16.0215C19.8724 19.012 18.7344 20.5485 17.3772 21.3249C16.1424 22.0313 14.6407 22.1591 13.3345 22.0429C13.0855 21.7205 12.5814 21.5 12 21.5C11.1716 21.5 10.5 21.9477 10.5 22.5C10.5 23.0523 11.1716 23.5 12 23.5C12.5298 23.5 12.9955 23.3169 13.2623 23.0404C14.6895 23.165 16.4074 23.0317 17.8737 22.193C19.6258 21.1907 20.9075 19.248 20.9956 15.8751C22.7231 15.4326 24 13.8654 24 12C24 10.4418 23.109 9.09163 21.8087 8.4313ZM12.4998 2C8.49998 2 5.14578 4.58934 4.11939 8.09725C4.40214 8.03373 4.69621 8.00014 4.9981 8C6.42893 5.32211 9.25168 3.5 12.5 3.5C15.7483 3.5 18.5711 5.32211 20.0019 8C20.3036 8.00014 20.5976 8.03369 20.8802 8.09715C19.8537 4.58929 16.4996 2 12.4998 2ZM20.4691 14.9635C21.9031 14.7383 23 13.4973 23 12C23 10.5027 21.9031 9.26165 20.4691 9.03647C20.8124 9.95921 21 10.9577 21 12C21 13.0423 20.8124 14.0408 20.4691 14.9635ZM2 12C2 10.5027 3.09686 9.26165 4.53089 9.03647C4.18761 9.95921 4 10.9577 4 12C4 13.0423 4.18761 14.0408 4.53089 14.9635C3.09686 14.7383 2 13.4973 2 12ZM12.5 4.5C8.35786 4.5 5 7.85786 5 12C5 16.1421 8.35786 19.5 12.5 19.5C16.6421 19.5 20 16.1421 20 12C20 7.85786 16.6421 4.5 12.5 4.5Z" fill="black"/> </svg>