<svg width="25" height="24" viewBox="0 0 25 24" fill="none" xmlns="http://www.w3.org/2000/svg"> <path fill-rule="evenodd" clip-rule="evenodd" d="M13.7998 1.79997C11.1488 1.79997 8.9998 3.949 8.9998 6.59997C8.9998 6.96743 9.04099 7.32453 9.11874 7.6672L7.94849 7.93274C7.8511 7.50354 7.7998 7.05738 7.7998 6.59997C7.7998 3.28626 10.4861 0.599969 13.7998 0.599969C17.1135 0.599969 19.7998 3.28626 19.7998 6.59997C19.7998 7.55678 19.5754 8.4629 19.1758 9.26699L18.1012 8.73295C18.4202 8.09109 18.5998 7.36737 18.5998 6.59997C18.5998 3.949 16.4508 1.79997 13.7998 1.79997ZM16.3216 8.99997H3.38069L2.94098 11.2867L4.1194 11.5133L4.37193 10.2H14.8777L13.0912 19.8H8.37636C8.30576 19.0085 7.89037 18.2689 7.15462 17.8418C5.90106 17.1142 4.32096 17.6441 3.59379 18.8968C3.42765 19.1831 3.31636 19.4892 3.25848 19.8H2.52597L2.8503 18.1133L1.67189 17.8867L1.07324 21H3.30003C3.46298 21.6165 3.84853 22.1666 4.44376 22.5121C5.69731 23.2397 7.27741 22.7099 8.00458 21.4571C8.09035 21.3093 8.1615 21.1562 8.21824 21H14.0885L16.3216 8.99997ZM1.7998 14.2728H10.3194V13.0728H1.7998V14.2728ZM7.34793 16.364H-0.000195313V15.164H7.34793V16.364ZM4.63162 19.4993C5.06891 18.7459 5.94292 18.526 6.5522 18.8797C7.16149 19.2333 7.40404 20.1013 6.96675 20.8547C6.52946 21.608 5.65545 21.8279 5.04617 21.4743C4.43689 21.1206 4.19433 20.2526 4.63162 19.4993ZM20.4711 18.8797C19.8619 18.526 18.9879 18.7459 18.5506 19.4993C18.1133 20.2526 18.3558 21.1206 18.9651 21.4743C19.5744 21.8279 20.4484 21.608 20.8857 20.8547C21.323 20.1013 21.0804 19.2333 20.4711 18.8797ZM17.5127 18.8968C18.2399 17.6441 19.82 17.1142 21.0736 17.8418C21.8093 18.2689 22.2247 19.0085 22.2953 19.8H22.5486L22.7787 16.4841L21.6318 15.624L21.2336 12H18.6162L16.9423 19.8H17.1774C17.2353 19.4892 17.3466 19.1831 17.5127 18.8968ZM17.219 21H15.4574L17.6464 10.8H22.309L22.7679 14.976L24.021 15.9158L23.6682 21H22.1372C22.0805 21.1562 22.0093 21.3093 21.9235 21.4571C21.1964 22.7099 19.6163 23.2397 18.3627 22.5121C17.7675 22.1666 17.3819 21.6165 17.219 21ZM14.3998 5.7752V3.59997H13.1998V6.28055L14.5806 7.6292L15.419 6.77074L14.3998 5.7752Z" fill="black"/> </svg>