<svg width="24" height="24" viewBox="0 0 24 24" fill="none" xmlns="http://www.w3.org/2000/svg"> <path d="M7.00008 2.90002C5.30445 2.90002 3.62338 3.74512 2.57434 5.21378C1.51416 6.69802 1.12646 8.77655 1.93086 11.1898C2.58086 13.1397 4.38643 15.2683 6.28398 17.0948C8.2029 18.9419 10.3042 20.5622 11.6602 21.4944C11.8649 21.6352 12.1352 21.6352 12.34 21.4944C13.6959 20.5622 15.7973 18.9419 17.7162 17.0948C19.6137 15.2683 21.4193 13.1397 22.0693 11.1898C22.8737 8.77655 22.486 6.69802 21.4258 5.21378C20.3768 3.74512 18.6957 2.90002 17.0001 2.90002C14.4175 2.90002 12.8356 4.24801 12.0001 5.36874C11.1646 4.24801 9.58267 2.90002 7.00008 2.90002Z" fill="black"/> </svg>