<svg width="24" height="24" viewBox="0 0 24 24" fill="none" xmlns="http://www.w3.org/2000/svg"> <path fill-rule="evenodd" clip-rule="evenodd" d="M21.6 6.40002H17.6122C18.3682 5.81345 18.7378 4.96547 18.6139 4.15105C18.4668 3.18401 17.6575 2.47015 16.4681 2.40391C15.2318 2.33507 14.1392 3.17742 13.3399 4.03996C12.8182 4.60287 12.3627 5.23811 12.003 5.80935C11.6432 5.23811 11.1877 4.60287 10.666 4.03996C9.86671 3.17742 8.77416 2.33507 7.53782 2.40391C6.34844 2.47015 5.53914 3.18401 5.39202 4.15105C5.26811 4.96547 5.63768 5.81345 6.39376 6.40002H2.40002V22L11.4 22V10H12.6V22L21.6 22V6.40002ZM10.1894 6.3182C10.4576 6.34459 10.712 6.36273 10.9408 6.37514C10.6209 5.87438 10.2265 5.33106 9.78587 4.85563C9.02626 4.03594 8.26626 3.56521 7.60454 3.60206C6.89585 3.64152 6.62772 4.00715 6.57837 4.33154C6.52337 4.69305 6.70594 5.22274 7.3456 5.5979C8.03626 6.00298 9.15963 6.21687 10.1894 6.3182ZM13.0651 6.37514C13.2939 6.36273 13.5483 6.34459 13.8165 6.3182C14.8463 6.21687 15.9697 6.00298 16.6603 5.5979C17.3 5.22274 17.4826 4.69305 17.4276 4.33154C17.3782 4.00715 17.1101 3.64152 16.4014 3.60206C15.7397 3.56521 14.9797 4.03594 14.2201 4.85563C13.7795 5.33106 13.3851 5.87438 13.0651 6.37514Z" fill="black"/> </svg>