<svg width="24" height="24" viewBox="0 0 24 24" fill="none" xmlns="http://www.w3.org/2000/svg"> <path d="M2.99999 0.400024C1.56405 0.400024 0.399994 1.56408 0.399994 3.00002L0.407037 21C0.509658 22.453 1.72089 23.5999 3.19999 23.5999H13V22.3999H3.19999C2.31634 22.3999 1.59999 21.6835 1.59999 20.7999C1.59999 19.9162 2.31634 19.1999 3.19999 19.1999H11V17.9999H3.19999C2.60509 17.9999 2.05353 18.1854 1.59999 18.5018V3.00002C1.59999 2.22683 2.2268 1.60002 2.99999 1.60002H18.4V10.5H19.6V0.400024H2.99999Z" fill="black"/> <path d="M15 7.25676H5V6.05676H15V7.25676Z" fill="black"/> <path d="M17.4 16V15H18.6V16H17.4Z" fill="black"/> <path d="M17.4 17V21H18.6V17H17.4Z" fill="black"/> <path fill-rule="evenodd" clip-rule="evenodd" d="M17.9714 12.343C14.8629 12.343 12.3429 14.863 12.3429 17.9715C12.3429 21.0801 14.8629 23.6001 17.9714 23.6001C21.08 23.6001 23.6 21.0801 23.6 17.9715C23.6 14.863 21.08 12.343 17.9714 12.343ZM13.5429 17.9715C13.5429 15.5257 15.5256 13.543 17.9714 13.543C20.4173 13.543 22.4 15.5257 22.4 17.9715C22.4 20.4174 20.4173 22.4001 17.9714 22.4001C15.5256 22.4001 13.5429 20.4174 13.5429 17.9715Z" fill="black"/> </svg>