<svg width="24" height="24" viewBox="0 0 24 24" fill="none" xmlns="http://www.w3.org/2000/svg"> <path fill-rule="evenodd" clip-rule="evenodd" d="M1.40002 12C1.40002 6.14578 6.14581 1.39999 12 1.39999C17.8542 1.39999 22.6 6.14578 22.6 12C22.6 17.8542 17.8542 22.6 12 22.6C6.14581 22.6 1.40002 17.8542 1.40002 12ZM12 6.09999C10.6745 6.09999 9.60002 7.17451 9.60002 8.49999H8.40002C8.40002 6.51177 10.0118 4.89999 12 4.89999C13.9882 4.89999 15.6 6.51177 15.6 8.49999C15.6 9.64812 15.0619 10.6709 14.2265 11.3291C13.794 11.6699 13.3773 12.0189 13.0678 12.3995C12.7609 12.777 12.6 13.1363 12.6 13.5V14.5H11.4V13.5C11.4 12.7591 11.7329 12.1391 12.1367 11.6425C12.5378 11.1491 13.0487 10.7294 13.4838 10.3865C14.0429 9.94606 14.4 9.26491 14.4 8.49999C14.4 7.17451 13.3255 6.09999 12 6.09999ZM13 17C13 17.5523 12.5523 18 12 18C11.4477 18 11 17.5523 11 17C11 16.4477 11.4477 16 12 16C12.5523 16 13 16.4477 13 17Z" fill="black"/> </svg>