<svg width="24" height="24" viewBox="0 0 24 24" fill="none" xmlns="http://www.w3.org/2000/svg"> <path d="M6 7.5V6.5H19V7.5H6Z" fill="black"/> <path d="M6 12H15V11H6V12Z" fill="black"/> <path d="M11 16.5H6V15.5H11V16.5Z" fill="black"/> <path d="M14.7567 16.7242L18.865 12.342L18.1354 11.658L14.7438 15.2758L12.8588 13.3358L12.1416 14.0326L14.7567 16.7242Z" fill="black"/> <path fill-rule="evenodd" clip-rule="evenodd" d="M12.5 0.5C6.42487 0.5 1.5 5.42487 1.5 11.5C1.5 14.3577 2.58971 16.9609 4.37627 18.9166L0.646484 22.6464L1.35359 23.3535L5.08338 19.6237C7.03916 21.4103 9.64232 22.5 12.5 22.5C18.5751 22.5 23.5 17.5751 23.5 11.5C23.5 5.42487 18.5751 0.5 12.5 0.5ZM2.5 11.5C2.5 5.97715 6.97715 1.5 12.5 1.5C18.0228 1.5 22.5 5.97715 22.5 11.5C22.5 17.0228 18.0228 21.5 12.5 21.5C6.97715 21.5 2.5 17.0228 2.5 11.5Z" fill="black"/> </svg>