<svg width="24" height="24" viewBox="0 0 24 24" fill="none" xmlns="http://www.w3.org/2000/svg"> <path fill-rule="evenodd" clip-rule="evenodd" d="M1.40002 12C1.40002 6.14578 6.14581 1.39999 12 1.39999C17.8542 1.39999 22.6 6.14578 22.6 12C22.6 17.8542 17.8542 22.6 12 22.6C6.14581 22.6 1.40002 17.8542 1.40002 12ZM13 6.99997C13 6.44768 12.5523 5.99997 12 5.99997C11.4477 5.99997 11 6.44768 11 6.99997C11 7.55225 11.4477 7.99997 12 7.99997C12.5523 7.99997 13 7.55225 13 6.99997ZM11.4 9.99997V18H12.6L12.6 9.99997H11.4Z" fill="black"/> </svg>