<svg width="24" height="24" viewBox="0 0 24 24" fill="none" xmlns="http://www.w3.org/2000/svg"> <path fill-rule="evenodd" clip-rule="evenodd" d="M5.59085 17.5606L2.57568 20.5757L3.42421 21.4243L21.4242 3.42427L20.5757 2.57574L17.4483 5.70317C15.856 4.62176 13.9921 4 12 4C7.38322 4 3.45561 7.33923 2 12C2.69632 14.2296 3.95832 16.1567 5.59085 17.5606ZM8.06558 15.0858L9.49702 13.6544C9.18292 13.1802 9 12.6114 9 12C9 10.3431 10.3431 9 12 9C12.6114 9 13.1802 9.18292 13.6544 9.49702L15.0858 8.06558C14.236 7.39808 13.1645 7 12 7C9.23858 7 7 9.23858 7 12C7 13.1645 7.39808 14.236 8.06558 15.0858Z" fill="black"/> <path d="M7.33956 18.7818C8.74616 19.562 10.3279 20 12 20C16.6167 20 20.5443 16.6608 21.9999 12C21.4003 10.0801 20.3812 8.38441 19.0673 7.05403L16.4341 9.68723C16.7956 10.3788 17 11.1656 17 12C17 14.7614 14.7614 17 12 17C11.1656 17 10.3788 16.7956 9.68723 16.4341L7.33956 18.7818Z" fill="black"/> </svg>