<svg width="25" height="24" viewBox="0 0 25 24" fill="none" xmlns="http://www.w3.org/2000/svg"> <path d="M9.1839 15.6H7.5999V8.4H9.1839V15.6Z" fill="black"/> <path fill-rule="evenodd" clip-rule="evenodd" d="M12.8918 15.6H11.3073V8.4H15.1349C16.9596 8.4 17.8719 9.22629 17.8719 10.8789C17.8719 12.0789 17.3574 12.8434 16.3285 13.1726L18.16 15.6H16.2976L14.7748 13.4811H12.8918V15.6ZM12.8918 12.0823H15.0938C15.8757 12.0823 16.2667 11.7051 16.2667 10.9509C16.2667 10.2034 15.8757 9.82971 15.0938 9.82971H12.8918V12.0823Z" fill="black"/> <path fill-rule="evenodd" clip-rule="evenodd" d="M12.3999 0C5.77249 0 0.399902 5.37258 0.399902 12C0.399902 18.6274 5.77249 24 12.3999 24C19.0273 24 24.3999 18.6274 24.3999 12C24.3999 5.37258 19.0273 0 12.3999 0ZM1.5999 12C1.5999 6.03532 6.43523 1.2 12.3999 1.2C18.3646 1.2 23.1999 6.03532 23.1999 12C23.1999 17.9647 18.3646 22.8 12.3999 22.8C6.43523 22.8 1.5999 17.9647 1.5999 12Z" fill="black"/> </svg>