<svg width="24" height="24" viewBox="0 0 24 24" fill="none" xmlns="http://www.w3.org/2000/svg"> <path d="M20.2024 10.3029L18.0811 12.4243L17.2326 11.5757L19.3539 9.45442C20.6817 8.12664 20.6817 5.97388 19.3539 4.64609C18.0261 3.31831 15.8734 3.31831 14.5456 4.64609L11.01 8.18163C9.68226 9.50941 9.68226 11.6622 11.01 12.99C11.5386 13.5186 12.198 13.8367 12.884 13.9444L11.8984 14.93C11.264 14.7092 10.6684 14.3453 10.1615 13.8385C8.36511 12.0421 8.36511 9.12951 10.1615 7.3331L13.6971 3.79756C15.4935 2.00115 18.406 2.00115 20.2024 3.79756C21.9988 5.59398 21.9988 8.50654 20.2024 10.3029Z" fill="black"/> <path d="M3.79763 13.6971L5.91895 11.5757L6.76748 12.4243L4.64615 14.5456C3.31837 15.8734 3.31837 18.0261 4.64615 19.3539C5.97394 20.6817 8.1267 20.6817 9.45448 19.3539L13.6971 15.1113C15.0249 13.7835 15.0249 11.6307 13.6971 10.303C13.1685 9.77436 12.5092 9.4562 11.8232 9.34848L12.8087 8.36292C13.4431 8.58376 14.0388 8.94759 14.5456 9.45443C16.3421 11.2508 16.3421 14.1634 14.5456 15.9598L10.303 20.2025C8.5066 21.9989 5.59404 21.9989 3.79763 20.2025C2.00121 18.406 2.00121 15.4935 3.79763 13.6971Z" fill="black"/> </svg>