<svg width="24" height="24" viewBox="0 0 24 24" fill="none" xmlns="http://www.w3.org/2000/svg"> <path fill-rule="evenodd" clip-rule="evenodd" d="M7 4.00003H10.75V7.75003H7V4.00003ZM8 5.00003V6.75003H9.75V5.00003H8Z" fill="black"/> <path fill-rule="evenodd" clip-rule="evenodd" d="M13.25 4.00003H17V7.75003H13.25V4.00003ZM14.25 5.00003V6.75003H16V5.00003H14.25Z" fill="black"/> <path d="M11.5 6.50003V4.00003H12.5V6.50003H11.5Z" fill="black"/> <path d="M8 9.50003H7V8.50003H8V9.50003Z" fill="black"/> <path d="M11.5 9.50003H8.75V8.50003H11.5V9.50003Z" fill="black"/> <path d="M12.5 8.50003H11.5V7.50003H12.5V8.50003Z" fill="black"/> <path d="M13.5 10V8.50003H12.5V10H11.5V13H12.5V14H13.5V13H12.5V10H13.5Z" fill="black"/> <path d="M13.5 10H14.5V11H13.5V10Z" fill="black"/> <path d="M14.5 9.50003H16V10.5H17V8.50003H14.5V9.50003Z" fill="black"/> <path d="M14.5 13H16V12H17V14H14.5V13Z" fill="black"/> <path fill-rule="evenodd" clip-rule="evenodd" d="M10.75 10.25H7V14H10.75V10.25ZM8 13V11.25H9.75V13H8Z" fill="black"/> <path fill-rule="evenodd" clip-rule="evenodd" d="M11.8035 19.4701C12.0969 19.1073 12.273 18.645 12.273 18.1301C12.273 16.9246 11.3163 16 10.1365 16C8.95674 16 8 16.9246 8 18.1301C8 19.3355 8.95674 20.2601 10.1365 20.2601C10.4828 20.2601 10.8115 20.1782 11.0991 20.0377L11.5393 20.5L12.2143 19.9032L11.8035 19.4701ZM10.4241 19.318C10.3302 19.3355 10.2363 19.3472 10.1365 19.3472C9.46739 19.3472 8.93913 18.8615 8.93913 18.1301C8.93913 17.3986 9.46739 16.9129 10.1365 16.9129C10.8056 16.9129 11.3339 17.3986 11.3339 18.1301C11.3339 18.3817 11.2693 18.6041 11.1637 18.7913L10.5063 18.095L9.8313 18.6918L10.4241 19.318Z" fill="black"/> <path fill-rule="evenodd" clip-rule="evenodd" d="M14.2157 18.8323L14.9904 20.1782H16L15.1254 18.6743C15.5774 18.4461 15.8826 17.9896 15.8826 17.4864C15.8826 16.7081 15.2546 16.082 14.4739 16.082H12.8304V20.1782H13.7696V18.8323H14.2157ZM13.7696 18.013V16.9597H14.4739C14.7322 16.9597 14.9435 17.1879 14.9435 17.4864C14.9435 17.7848 14.7322 18.013 14.4739 18.013H13.7696Z" fill="black"/> <path fill-rule="evenodd" clip-rule="evenodd" d="M3.3999 0.400024H20.5999V23.6H3.3999V0.400024ZM4.5999 1.60002V22.4H19.3999V1.60002H4.5999Z" fill="black"/> </svg>