<svg width="24" height="24" viewBox="0 0 24 24" fill="none" xmlns="http://www.w3.org/2000/svg"> <path fill-rule="evenodd" clip-rule="evenodd" d="M12 23C18.0751 23 23 18.0751 23 12C23 5.92487 18.0751 1 12 1C5.92487 1 1 5.92487 1 12C1 18.0751 5.92487 23 12 23ZM12 24C18.6274 24 24 18.6274 24 12C24 5.37258 18.6274 0 12 0C5.37258 0 0 5.37258 0 12C0 18.6274 5.37258 24 12 24Z" fill="black"/> <path fill-rule="evenodd" clip-rule="evenodd" d="M10.4053 14.6905C11.4561 14.2055 12.0462 13.1547 12.0462 11.9908C12.0462 10.3822 10.9226 9 9.02309 9C7.12356 9 6 10.3822 6 11.9908C6 13.5993 7.12356 14.9815 9.02309 14.9815H9.04734L9.81524 16L10.963 15.418L10.4053 14.6905ZM10.6801 11.9908C10.6801 12.9769 10.0982 13.8095 9.02309 13.8095C7.93995 13.8095 7.35797 12.9769 7.36605 11.9908C7.35797 11.0046 7.93995 10.1721 9.02309 10.1721C10.0982 10.1721 10.6801 11.0046 10.6801 11.9908Z" fill="black"/> <path fill-rule="evenodd" clip-rule="evenodd" d="M16.1825 13.0254C16.8291 12.7021 17.2414 12.0312 17.2414 11.2067C17.2414 10.0185 16.3926 9.16165 15.2125 9.16165H12.8037V14.8198H14.1132V13.2517H14.8002L15.6894 14.8198H17.1767L16.1825 13.0254ZM14.1132 10.2286H15.0104C15.5358 10.2286 15.9157 10.6409 15.9157 11.2067C15.9157 11.7725 15.5358 12.1847 15.0104 12.1847H14.1132V10.2286Z" fill="black"/> </svg>