<svg width="24" height="24" viewBox="0 0 24 24" fill="none" xmlns="http://www.w3.org/2000/svg"> <path fill-rule="evenodd" clip-rule="evenodd" d="M18.76 21.9001H17.8V18.7261L16.426 21.0001H16.312L14.938 18.7321V21.9001H13.972V17.0041H14.968L16.372 19.3201L17.764 17.0041H18.76V21.9001Z" fill="black"/> <path fill-rule="evenodd" clip-rule="evenodd" d="M21.862 19.9921V21.9001H20.902V19.9921L19.234 16.9921H20.338L21.4 19.0321L22.462 16.9921H23.548L21.862 19.9921Z" fill="black"/> <path fill-rule="evenodd" clip-rule="evenodd" d="M10.5677 4.94783C10.0029 4.01545 9.30461 3.16906 8.494 2.43612C7.564 1.66212 6.652 1.39212 5.764 1.66212C5.18197 1.83644 4.70591 2.25765 4.462 2.81412C4.1974 3.41291 4.21058 4.09795 4.498 4.68612C4.70406 5.12647 5.05022 5.47884 5.48463 5.76025H1.54C1.24177 5.76025 1 6.00202 1 6.30025V19.9442H2.08V6.84025H18.796V14.8563H19.876V6.30025C19.876 6.15704 19.8191 6.01969 19.7178 5.91842C19.6166 5.81715 19.4792 5.76025 19.336 5.76025H15.6435C16.0778 5.47884 16.4239 5.12648 16.63 4.68615C16.9174 4.09798 16.9306 3.41293 16.666 2.81415C16.4247 2.25801 15.9506 1.83653 15.37 1.66214C14.482 1.39214 13.588 1.65014 12.646 2.43615C11.8342 3.16917 11.1344 4.01549 10.5677 4.94783ZM13.336 3.24014C12.5466 3.94856 11.8815 4.78411 11.368 5.71214C13.66 5.59214 15.268 5.03414 15.652 4.20014C15.7987 3.89276 15.7987 3.53553 15.652 3.22815C15.5394 2.96602 15.3216 2.76346 15.052 2.67014C14.4104 2.55106 13.7537 2.77911 13.324 3.27014L13.336 3.24014ZM6.436 2.64012C6.31201 2.64002 6.18868 2.65821 6.07 2.69412C5.80002 2.78678 5.58197 2.98956 5.47 3.25212C5.3406 3.56758 5.35151 3.92319 5.5 4.23012C5.89 5.05812 7.498 5.61612 9.784 5.73612C9.26712 4.80536 8.59552 3.96942 7.798 3.26412C7.43302 2.90375 6.95313 2.68291 6.442 2.64012H6.436Z" fill="black"/> <path d="M9.856 8.75414H10.936V19.9441H9.856V8.75414Z" fill="black"/> </svg>