<svg width="24" height="24" viewBox="0 0 24 24" fill="none" xmlns="http://www.w3.org/2000/svg"> <path fill-rule="evenodd" clip-rule="evenodd" d="M12 23C18.0751 23 23 18.0751 23 12C23 5.92487 18.0751 1 12 1C5.92487 1 1 5.92487 1 12C1 18.0751 5.92487 23 12 23ZM12 24C18.6274 24 24 18.6274 24 12C24 5.37258 18.6274 0 12 0C5.37258 0 0 5.37258 0 12C0 18.6274 5.37258 24 12 24Z" fill="black"/> <path d="M2.5 12.9858C2.5 13.9405 3.12635 14.5 4.1723 14.5C5.11486 14.5 5.73513 13.9831 5.73513 13.1865C5.73513 12.6149 5.46757 12.2196 4.8777 11.9885L4.1723 11.7088C3.7527 11.5385 3.58851 11.3926 3.58851 11.1554C3.58851 10.9 3.77703 10.7358 4.09932 10.7358C4.48243 10.7358 4.68919 10.9547 4.68919 11.35H5.67432C5.67432 10.5291 5.05405 10 4.11757 10C3.19324 10 2.60338 10.4986 2.60338 11.2466C2.60338 11.8 2.89527 12.1953 3.46689 12.4081L4.23311 12.7061C4.61622 12.8581 4.75 12.9919 4.75 13.2534C4.75 13.5514 4.54324 13.7216 4.17838 13.7216C3.74662 13.7216 3.48514 13.448 3.48514 12.9858H2.5Z" fill="black"/> <path fill-rule="evenodd" clip-rule="evenodd" d="M9.27051 12.25C9.27051 13.4601 10.1158 14.5 11.5448 14.5C12.9739 14.5 13.8192 13.4601 13.8192 12.25C13.8192 11.0399 12.9739 10 11.5448 10C10.1158 10 9.27051 11.0399 9.27051 12.25ZM12.7915 12.25C12.7915 12.9919 12.3536 13.6182 11.5448 13.6182C10.73 13.6182 10.2921 12.9919 10.2982 12.25C10.2921 11.5081 10.73 10.8818 11.5448 10.8818C12.3536 10.8818 12.7915 11.5081 12.7915 12.25Z" fill="black"/> <path fill-rule="evenodd" clip-rule="evenodd" d="M17.7282 11.6601C17.7282 12.2804 17.418 12.7851 16.9315 13.0284L17.6795 14.3784H16.5606L15.8917 13.1986H15.3748V14.3784H14.3896V10.1216H16.2018C17.0896 10.1216 17.7282 10.7662 17.7282 11.6601ZM16.0498 10.9243H15.3748V12.3959H16.0498C16.4451 12.3959 16.7309 12.0858 16.7309 11.6601C16.7309 11.2345 16.4451 10.9243 16.0498 10.9243Z" fill="black"/> <path d="M19.7173 11.8L20.5018 10.1216H21.5903L19.4801 14.3784H18.3855L19.1761 12.773L17.668 10.1216H18.8112L19.7173 11.8Z" fill="black"/> <path d="M8.01088 14.3784H7.03183V10.9973H5.86426V10.1216H9.18453V10.9973H8.01088V14.3784Z" fill="black"/> </svg>