<svg width="24" height="24" viewBox="0 0 24 24" fill="none" xmlns="http://www.w3.org/2000/svg"> <path fill-rule="evenodd" clip-rule="evenodd" d="M8.75003 0.36792L12.3326 6.1H5.16748L8.75003 0.36792ZM7.33258 4.9H10.1675L8.75003 2.63208L7.33258 4.9Z" fill="black"/> <path fill-rule="evenodd" clip-rule="evenodd" d="M18.2413 2.1427L23.5986 7.49998L9.49855 21.6H4.15002V16.8211L18.2413 2.1427ZM16.2996 5.89809L5.35002 17.3039V20.4H9.0015L19.9015 9.5L16.2996 5.89809ZM17.1308 5.03225L20.75 8.65147L21.9015 7.49998L18.2588 3.85725L17.1308 5.03225Z" fill="black"/> <path fill-rule="evenodd" clip-rule="evenodd" d="M4.25002 6.90002C2.67601 6.90002 1.40002 8.17601 1.40002 9.75002C1.40002 11.324 2.67601 12.6 4.25002 12.6C5.82404 12.6 7.10002 11.324 7.10002 9.75002C7.10002 8.17601 5.82404 6.90002 4.25002 6.90002ZM2.60002 9.75002C2.60002 8.83875 3.33875 8.10002 4.25002 8.10002C5.16129 8.10002 5.90002 8.83875 5.90002 9.75002C5.90002 10.6613 5.16129 11.4 4.25002 11.4C3.33875 11.4 2.60002 10.6613 2.60002 9.75002Z" fill="black"/> <path fill-rule="evenodd" clip-rule="evenodd" d="M18.15 17.4H23.35V22.6H18.15V17.4ZM19.35 18.6V21.4H22.15V18.6H19.35Z" fill="black"/> </svg>