<svg width="24" height="24" viewBox="0 0 24 24" fill="none" xmlns="http://www.w3.org/2000/svg"> <path fill-rule="evenodd" clip-rule="evenodd" d="M0.899902 5.50039C0.899902 3.78831 2.28782 2.40039 3.9999 2.40039C5.71199 2.40039 7.0999 3.78831 7.0999 5.50039C7.0999 7.21247 5.71199 8.60039 3.9999 8.60039C2.28782 8.60039 0.899902 7.21247 0.899902 5.50039ZM3.9999 3.60039C2.95056 3.60039 2.0999 4.45105 2.0999 5.50039C2.0999 6.54973 2.95056 7.40039 3.9999 7.40039C5.04924 7.40039 5.8999 6.54973 5.8999 5.50039C5.8999 4.45105 5.04924 3.60039 3.9999 3.60039Z" fill="black"/> <path d="M8.9999 3.40039C8.66853 3.40039 8.3999 3.66902 8.3999 4.00039C8.3999 4.33176 8.66853 4.60039 8.9999 4.60039H21.9999C22.2208 4.60039 22.3999 4.77948 22.3999 5.00039V19.0004C22.3999 19.2213 22.2208 19.4004 21.9999 19.4004H8.9999C8.66853 19.4004 8.3999 19.669 8.3999 20.0004C8.3999 20.3318 8.66853 20.6004 8.9999 20.6004H21.9999C22.8836 20.6004 23.5999 19.884 23.5999 19.0004V5.00039C23.5999 4.11673 22.8836 3.40039 21.9999 3.40039H8.9999Z" fill="black"/> <path d="M1.5999 13.0004C1.5999 11.6749 2.67442 10.6004 3.9999 10.6004C5.32539 10.6004 6.3999 11.6749 6.3999 13.0004V14.4448C6.3999 15.083 6.91726 15.6004 7.55546 15.6004H9.9999C10.3313 15.6004 10.5999 15.3318 10.5999 15.0004C10.5999 14.669 10.3313 14.4004 9.9999 14.4004H7.5999V13.0004C7.5999 11.0122 5.98813 9.40039 3.9999 9.40039C2.01168 9.40039 0.399902 11.0122 0.399902 13.0004V20.0004C0.399902 20.3318 0.668532 20.6004 0.999902 20.6004C1.33127 20.6004 1.5999 20.3318 1.5999 20.0004V13.0004Z" fill="black"/> <path fill-rule="evenodd" clip-rule="evenodd" d="M14.6239 8.68245C14.0911 8.34943 13.3999 8.7325 13.3999 9.36085V13.6392C13.3999 14.2675 14.0911 14.6506 14.6239 14.3175L18.0465 12.1784C18.5479 11.8651 18.5479 11.1349 18.0465 10.8216L14.6239 8.68245ZM16.8678 11.5L14.5999 12.9175V10.0825L16.8678 11.5Z" fill="black"/> </svg>