<svg width="24" height="24" viewBox="0 0 24 24" fill="none" xmlns="http://www.w3.org/2000/svg"> <path d="M11.3999 7.5V9H12.5999V7.5H11.3999Z" fill="black"/> <path d="M7.07568 9.92421L8.07568 10.9242L8.92421 10.0757L7.92421 9.07568L7.07568 9.92421Z" fill="black"/> <path d="M7 14.5999H5.5V13.3999H7V14.5999Z" fill="black"/> <path d="M18.5 14.5999H17V13.3999H18.5V14.5999Z" fill="black"/> <path d="M15.5757 10.0757L16.5757 9.07568L17.4242 9.92421L16.4242 10.9242L15.5757 10.0757Z" fill="black"/> <path fill-rule="evenodd" clip-rule="evenodd" d="M14.4428 16.5953C14.1825 16.8189 14 17.1307 14 17.4738V20H10V17.4738C10 17.1308 9.81745 16.8189 9.55724 16.5953C8.75691 15.9076 8.25 14.888 8.25 13.75C8.25 11.6789 9.92893 10 12 10C14.0711 10 15.75 11.6789 15.75 13.75C15.75 14.888 15.2431 15.9076 14.4428 16.5953ZM13.6607 15.6852C14.207 15.2157 14.55 14.5236 14.55 13.75C14.55 12.3417 13.4083 11.2 12 11.2C10.5917 11.2 9.45 12.3417 9.45 13.75C9.45 14.5236 9.79297 15.2157 10.3393 15.6852C10.6729 15.9718 10.9845 16.3866 11.1237 16.8999H12.8763C13.0155 16.3866 13.3271 15.9718 13.6607 15.6852ZM12.8 18.0999H11.2V18.8H12.8V18.0999Z" fill="black"/> <path fill-rule="evenodd" clip-rule="evenodd" d="M1 1H23V23H1V1ZM2.2 2.2H21.8V4.8999H2.2V2.2ZM21.8 6.0999V21.8H2.2V6.0999H21.8Z" fill="black"/> </svg>