<svg width="24" height="24" viewBox="0 0 24 24" fill="none" xmlns="http://www.w3.org/2000/svg"> <path fill-rule="evenodd" clip-rule="evenodd" d="M1.2 1.20001C0.537258 1.20001 0 1.73727 0 2.40001V21.6C0 22.2628 0.537259 22.8 1.2 22.8H22.8C23.4627 22.8 24 22.2628 24 21.6V2.40001C24 1.73727 23.4627 1.20001 22.8 1.20001H1.2ZM1.2 21.6V2.40001L22.8 2.40001V21.6H1.2ZM7.5001 15.6H2.7001V20.4H7.5001V15.6ZM3.9001 19.2V16.8H6.3001V19.2H3.9001ZM9.0001 11.4H13.8001V20.4H9.0001V11.4ZM10.2001 12.6V19.2H12.6001V12.6H10.2001ZM21.8659 9L17.7 3.16772L13.5341 9H15.3V20.4H20.1V9H21.8659ZM16.5 7.8H15.8659L17.7 5.23228L19.5341 7.8H18.9V19.2H16.5V7.8Z" fill="black"/> </svg>