<svg width="24" height="24" viewBox="0 0 24 24" fill="none" xmlns="http://www.w3.org/2000/svg"> <path fill-rule="evenodd" clip-rule="evenodd" d="M13.4861 16.2561L14.8734 18.539L16.2548 16.2561H17.2324V21.0853H16.29V17.9536L14.9261 20.1956H14.8148L13.4568 17.9595V21.0853H12.5085V16.2561H13.4861ZM21.9737 16.2561L20.2995 19.2005V21.0853H19.3512V19.2005L17.7005 16.2736H18.7776L19.8488 18.2697L20.9025 16.2561H21.9737ZM3.37074 2.5V19.8854H10.4829V21.0561H2.78538C2.46209 21.0561 2.20001 20.794 2.20001 20.4707V2.5H3.37074ZM21.0192 3.44243C21.3425 3.44243 21.6046 3.70451 21.6046 4.02779V9.07365H20.4339L20.4337 5.43639L13.6904 12.2873C13.4621 12.5143 13.0934 12.5143 12.8651 12.2873L11.0446 10.5312L6.92361 14.7517L6.08654 13.9322L10.6114 9.33706C10.8397 9.1101 11.2085 9.1101 11.4368 9.33706L13.2573 11.0932L19.6057 4.61259L15.95 4.61316V3.44243H21.0192Z" fill="black"/> </svg>