<svg width="24" height="24" viewBox="0 0 24 24" fill="none" xmlns="http://www.w3.org/2000/svg"> <path d="M6.40039 7.00002C6.40039 6.66865 6.66902 6.40002 7.00039 6.40002H17.0004C17.3318 6.40002 17.6004 6.66865 17.6004 7.00002C17.6004 7.3314 17.3318 7.60002 17.0004 7.60002H7.00039C6.66902 7.60002 6.40039 7.3314 6.40039 7.00002Z" fill="black"/> <path d="M7.00039 10.4C6.66902 10.4 6.40039 10.6687 6.40039 11C6.40039 11.3314 6.66902 11.6 7.00039 11.6H13.0004C13.3318 11.6 13.6004 11.3314 13.6004 11C13.6004 10.6687 13.3318 10.4 13.0004 10.4H7.00039Z" fill="black"/> <path fill-rule="evenodd" clip-rule="evenodd" d="M5.00039 1.40002C4.11673 1.40002 3.40039 2.11637 3.40039 3.00002V13.9083C3.31292 13.923 3.22738 13.9574 3.15047 14.0126L2.06726 14.7903C1.64862 15.0909 1.40039 15.5747 1.40039 16.09V20.5C1.40039 21.3837 2.11674 22.1 3.00039 22.1H21.0004C21.884 22.1 22.6004 21.3837 22.6004 20.5V16.1742C22.6004 15.5856 22.2772 15.0445 21.759 14.7655L20.6004 14.1416V3.00002C20.6004 2.11637 19.884 1.40002 19.0004 1.40002H5.00039ZM19.4004 14.4877L19.4003 14.4983L19.4004 14.5112V16.5338L12.4212 18.7377C12.1468 18.8243 11.8524 18.8243 11.578 18.7377L4.60039 16.5342V3.00002C4.60039 2.77911 4.77948 2.60002 5.00039 2.60002H19.0004C19.2213 2.60002 19.4004 2.77911 19.4004 3.00002V14.4877ZM3.40039 16.1553V15.3104L2.76711 15.7651C2.71191 15.8047 2.66856 15.8571 2.63992 15.9167C2.65339 15.9199 2.66684 15.9236 2.68025 15.9279L3.40039 16.1553ZM20.6004 16.1549V15.5045L21.19 15.822C21.24 15.8489 21.2827 15.8856 21.3163 15.9288L20.6004 16.1549ZM2.60039 20.5V17.1611L11.2166 19.882C11.7262 20.0429 12.2729 20.0429 12.7825 19.882L21.4004 17.1607V20.5C21.4004 20.7209 21.2213 20.9 21.0004 20.9H3.00039C2.77948 20.9 2.60039 20.7209 2.60039 20.5Z" fill="black"/> </svg>