<svg width="24" height="24" viewBox="0 0 24 24" fill="none" xmlns="http://www.w3.org/2000/svg"> <path fill-rule="evenodd" clip-rule="evenodd" d="M21.687 1.24899C21.687 0.463223 20.7279 0.127289 20.2148 0.659419C19.4641 1.43791 17.8679 2.92469 16.085 3.62512C14.8489 4.11071 13.2351 4.40244 11.9006 4.57136C11.2393 4.65507 10.6579 4.70729 10.2422 4.73854C10.0345 4.75416 9.86858 4.76451 9.75521 4.77094C9.69853 4.77415 9.65502 4.77638 9.62602 4.77779L9.59547 4.77922H5.54347C2.70281 4.77922 0.399994 7.08203 0.399994 9.9227C0.399994 12.5536 2.34192 14.7338 4.89999 15.0315V23.6H10.2087V15.1193L10.2467 15.1229C10.6733 15.1636 11.268 15.2273 11.9391 15.3188C13.2935 15.5035 14.9144 15.7958 16.0997 16.2259C18.0017 16.9159 19.4739 18.3243 20.1803 19.1043C20.4511 19.4033 20.8388 19.4327 21.1199 19.33C21.4029 19.2265 21.687 18.9472 21.687 18.5312V13.5454C22.8324 12.8552 23.6 11.5986 23.6 10.1618C23.6 8.72502 22.8324 7.46849 21.687 6.77823V1.24899ZM9.00861 5.97922H5.54347C3.36555 5.97922 1.59999 7.74478 1.59999 9.9227C1.59999 12.1082 3.32957 13.8662 5.49999 13.8662H6.09999V22.4H9.00869L9.00861 5.97922ZM10.2086 13.9141C10.2567 13.9185 10.3075 13.9232 10.3608 13.9283C10.7995 13.9702 11.4106 14.0356 12.1012 14.1298C13.4704 14.3165 15.1973 14.6219 16.509 15.0978C18.2306 15.7224 19.6116 16.8418 20.4869 17.6948V12.8083L20.8295 12.6455C21.7592 12.2039 22.4 11.2571 22.4 10.1618C22.4 9.06658 21.7592 8.1198 20.8295 7.67813L20.4869 7.5154V2.07705C19.5773 2.93448 18.1422 4.10619 16.5237 4.74202C15.145 5.28367 13.4109 5.58977 12.0513 5.76186C11.3656 5.84866 10.7634 5.90275 10.3322 5.93517C10.2893 5.93839 10.2481 5.9414 10.2086 5.94421L10.2086 13.9141Z" fill="black"/> </svg>