<svg width="24" height="24" viewBox="0 0 24 24" fill="none" xmlns="http://www.w3.org/2000/svg"> <path d="M5.67756 12.6038L4.51089 7.10376H5.48913L6.38174 11.1043L8.06481 8.12883C8.15354 7.97198 8.3198 7.87501 8.50001 7.87501C8.68022 7.87501 8.84649 7.97198 8.93521 8.12883L10.6183 11.1043L11.5109 7.10423L12.4891 7.10376L11.3225 12.6038C11.2793 12.8071 11.1149 12.9625 10.9095 12.9942C10.7041 13.0258 10.5005 12.9271 10.3981 12.7462L8.50001 9.39055L6.60188 12.7462C6.49954 12.9271 6.29596 13.0258 6.09054 12.9942C5.88511 12.9625 5.72069 12.8071 5.67756 12.6038Z" fill="black"/> <path d="M14.5 8.60002H18.5V7.40002H14.5V8.60002Z" fill="black"/> <path d="M18.5 13.6H14.5V12.4H18.5V13.6Z" fill="black"/> <path d="M5 18.6H18.5V17.4H5V18.6Z" fill="black"/> <path fill-rule="evenodd" clip-rule="evenodd" d="M14.7935 1.11211C15.1352 0.924224 15.5507 0.931204 15.8858 1.13046L18.4384 2.64822L20.999 1.33818C21.7309 0.963696 22.6 1.49528 22.6 2.31745V21C22.6 22.4359 21.4359 23.6 20 23.6H3.99999C2.56405 23.6 1.39999 22.4359 1.39999 21V2.30901C1.39999 1.49129 2.26054 0.959447 2.99193 1.32514L5.63755 2.64795L8.10628 1.13929C8.44302 0.933501 8.86419 0.923873 9.20998 1.11406L12 2.64857L14.7935 1.11211ZM15.3217 2.19114L12.5301 3.72653C12.2 3.90808 11.8 3.90808 11.4699 3.72653L8.68251 2.19348L6.216 3.70079C5.89237 3.89856 5.48969 3.91567 5.15047 3.74605L2.59999 2.47082V21C2.59999 21.7732 3.2268 22.4 3.99999 22.4H20C20.7732 22.4 21.4 21.7732 21.4 21V2.48094L18.9358 3.74168C18.5992 3.91392 18.1977 3.90116 17.8726 3.7079L15.3217 2.19114Z" fill="black"/> </svg>