<svg width="24" height="24" viewBox="0 0 24 24" fill="none" xmlns="http://www.w3.org/2000/svg"> <path d="M18.5166 4.33192L20.4242 2.42427L19.5757 1.57574L1.57568 19.5757L2.42421 20.4243L5.44846 17.4H21.3247C20.5306 16.1548 20.1238 14.6974 20.1394 13.2107C20.1575 11.4864 20.1629 10.1948 20.0995 8.43305C20.0439 6.88717 19.4514 5.47436 18.5166 4.33192Z" fill="black"/> <path d="M14.1271 1.64913C15.0549 1.85044 15.9372 2.22357 16.7252 2.73401L3.31958 16.1397C3.68703 15.2149 3.87097 14.2196 3.86039 13.2107C3.84231 11.4864 3.83687 10.1948 3.90028 8.43305C4.0212 5.0735 6.67768 2.34241 9.87266 1.64914C11.4034 1.31699 12.5964 1.31699 14.1271 1.64913Z" fill="black"/> <path d="M8.42194 18.6C8.40742 18.7313 8.39997 18.8648 8.39997 19C8.39997 19.4257 8.47383 19.8341 8.60947 20.2132C8.94899 21.1619 9.67543 21.9266 10.5987 22.3171C11.0294 22.4993 11.5029 22.6 12 22.6C13.9882 22.6 15.6 20.9882 15.6 19C15.6 18.8648 15.5925 18.7314 15.578 18.6H8.42194Z" fill="black"/> </svg>