<svg width="24" height="24" viewBox="0 0 24 24" fill="none" xmlns="http://www.w3.org/2000/svg"> <path d="M9.87272 1.64914C11.4034 1.31699 12.5965 1.31699 14.1272 1.64913C17.3222 2.3424 19.9786 5.0735 20.0996 8.43305C20.163 10.1948 20.1575 11.4864 20.1395 13.2107C20.1239 14.6974 20.5307 16.1548 21.3247 17.4H2.67517C3.46921 16.1548 3.87603 14.6974 3.86045 13.2107C3.84237 11.4864 3.83693 10.1948 3.90034 8.43305C4.02125 5.0735 6.67774 2.34241 9.87272 1.64914Z" fill="black"/> <path d="M8.422 18.6C8.40748 18.7313 8.40003 18.8648 8.40003 19C8.40003 19.4257 8.47389 19.8341 8.60953 20.2132C8.94905 21.1619 9.67548 21.9266 10.5987 22.3171C11.0294 22.4993 11.503 22.6 12 22.6C13.9882 22.6 15.6 20.9882 15.6 19C15.6 18.8648 15.5926 18.7314 15.5781 18.6H8.422Z" fill="black"/> </svg>