<svg width="24" height="24" viewBox="0 0 24 24" fill="none" xmlns="http://www.w3.org/2000/svg"> <path d="M15.7246 4.62426C15.9589 4.38995 15.9589 4.01005 15.7246 3.77574C15.4903 3.54142 15.1104 3.54142 14.8761 3.77574L13.4537 5.19812L12.6725 4.58031C12.4126 4.37475 12.0353 4.4188 11.8297 4.67871C11.6242 4.93861 11.6682 5.31595 11.9281 5.52151L13.1281 6.4706C13.3669 6.65947 13.7093 6.63955 13.9246 6.42426L15.7246 4.62426Z" fill="black"/> <path fill-rule="evenodd" clip-rule="evenodd" d="M13.8003 0C16.4653 0 18.6529 2.04411 18.8807 4.65H22.3795C23.1294 4.65 23.6956 5.33016 23.5596 6.06764L22.0104 14.4676C21.9055 15.0368 21.4091 15.45 20.8303 15.45H7.16858L7.50066 17.1H20.1003C20.144 17.1 20.1865 17.1047 20.2276 17.1135C20.3219 17.1046 20.4175 17.1 20.5143 17.1C22.1711 17.1 23.5143 18.4431 23.5143 20.1C23.5143 21.7569 22.1711 23.1 20.5143 23.1C18.8574 23.1 17.5143 21.7569 17.5143 20.1C17.5143 19.4246 17.7374 18.8014 18.114 18.3H9.77571C10.1523 18.8014 10.3755 19.4246 10.3755 20.1C10.3755 21.7569 9.03234 23.1 7.37549 23.1C5.71863 23.1 4.37549 21.7569 4.37549 20.1C4.37549 18.8164 5.18169 17.721 6.31538 17.2927L3.41504 2.88162C3.35866 2.6015 3.11257 2.4 2.82683 2.4H0.900293C0.568922 2.4 0.300293 2.13137 0.300293 1.8C0.300293 1.46863 0.568922 1.2 0.900293 1.2H2.82683C3.68404 1.2 4.42232 1.8045 4.59145 2.64486L4.99679 4.65889C5.03041 4.65305 5.065 4.65 5.10029 4.65H8.70029C8.70684 4.65 8.71335 4.65011 8.71985 4.65031C8.94751 2.04428 11.1352 0 13.8003 0ZM13.8003 1.2C11.6464 1.2 9.90029 2.94609 9.90029 5.1C9.90029 7.25391 11.6464 9 13.8003 9C15.9542 9 17.7003 7.25391 17.7003 5.1C17.7003 2.94609 15.9542 1.2 13.8003 1.2ZM8.70029 5.85C8.71863 5.85 8.73678 5.84918 8.75469 5.84757C9.11637 8.30983 11.2376 10.2 13.8003 10.2C16.3621 10.2 18.4828 8.31107 18.8455 5.85H22.3795L20.8303 14.25H6.92708L5.23651 5.85H8.70029ZM5.57549 20.1C5.57549 19.1059 6.38138 18.3 7.37549 18.3C8.3696 18.3 9.17549 19.1059 9.17549 20.1C9.17549 21.0941 8.3696 21.9 7.37549 21.9C6.38138 21.9 5.57549 21.0941 5.57549 20.1ZM18.7143 20.1C18.7143 19.1059 19.5201 18.3 20.5143 18.3C21.5084 18.3 22.3143 19.1059 22.3143 20.1C22.3143 21.0941 21.5084 21.9 20.5143 21.9C19.5201 21.9 18.7143 21.0941 18.7143 20.1Z" fill="black"/> </svg>