<svg width="24" height="24" viewBox="0 0 24 24" fill="none" xmlns="http://www.w3.org/2000/svg"> <path d="M9.40039 12C9.40039 11.6686 9.66902 11.4 10.0004 11.4H14.0004C14.3318 11.4 14.6004 11.6686 14.6004 12C14.6004 12.3313 14.3318 12.6 14.0004 12.6H10.0004C9.66902 12.6 9.40039 12.3313 9.40039 12Z" fill="black"/> <path fill-rule="evenodd" clip-rule="evenodd" d="M7.57523 2.40002C6.94799 2.40002 6.3419 2.62677 5.86868 3.03847L2.29286 6.14943C1.72528 6.64323 1.39941 7.35867 1.39941 8.11099V19C1.39941 20.436 2.56347 21.6 3.99941 21.6H19.9994C21.4354 21.6 22.5994 20.436 22.5994 19V8.01974C22.5994 7.33688 22.3308 6.68144 21.8515 6.195L18.8764 3.17528C18.3878 2.67929 17.7206 2.40002 17.0243 2.40002H7.57523ZM6.65632 3.9438C6.91113 3.72212 7.23749 3.60002 7.57523 3.60002H17.0243C17.3992 3.60002 17.7585 3.7504 18.0216 4.01747L20.8615 6.89999H3.2584L6.65632 3.9438ZM2.59946 8.09999C2.59943 8.10366 2.59941 8.10732 2.59941 8.11099V19C2.59941 19.7732 3.22622 20.4 3.99941 20.4H19.9994C20.7726 20.4 21.3994 19.7732 21.3994 19V8.09999H2.59946Z" fill="black"/> </svg>