<svg width="24" height="24" viewBox="0 0 24 24" fill="none" xmlns="http://www.w3.org/2000/svg"> <path d="M3.15002 1.15002H20.85V9.35002H13.4151L10.9094 11.6887L10.0906 10.8114L12.9421 8.15002H19.65V2.35002H4.35002V8.15002H9.64288V9.35002H3.15002V1.15002Z" fill="black"/> <path fill-rule="evenodd" clip-rule="evenodd" d="M1.65002 14.25C1.65002 12.676 2.92601 11.4 4.50002 11.4C6.07404 11.4 7.35002 12.676 7.35002 14.25C7.35002 15.824 6.07404 17.1 4.50002 17.1C2.92601 17.1 1.65002 15.824 1.65002 14.25ZM4.50002 12.6C3.58875 12.6 2.85002 13.3388 2.85002 14.25C2.85002 15.1613 3.58875 15.9 4.50002 15.9C5.41129 15.9 6.15002 15.1613 6.15002 14.25C6.15002 13.3388 5.41129 12.6 4.50002 12.6Z" fill="black"/> <path d="M4.50002 17.65C2.23566 17.65 0.400024 19.4857 0.400024 21.75V22.25H1.60002V21.75C1.60002 20.1484 2.8984 18.85 4.50002 18.85C6.10165 18.85 7.40002 20.1484 7.40002 21.75V22.25H8.60002V21.75C8.60002 19.4857 6.76439 17.65 4.50002 17.65Z" fill="black"/> <path fill-rule="evenodd" clip-rule="evenodd" d="M16.65 14.25C16.65 12.676 17.926 11.4 19.5 11.4C21.074 11.4 22.35 12.676 22.35 14.25C22.35 15.824 21.074 17.1 19.5 17.1C17.926 17.1 16.65 15.824 16.65 14.25ZM19.5 12.6C18.5888 12.6 17.85 13.3388 17.85 14.25C17.85 15.1613 18.5888 15.9 19.5 15.9C20.4113 15.9 21.15 15.1613 21.15 14.25C21.15 13.3388 20.4113 12.6 19.5 12.6Z" fill="black"/> <path d="M19.5263 18.0323C17.2765 18.0323 15.4526 19.8562 15.4526 22.106V22.75H16.6526V22.106C16.6526 20.5189 17.9392 19.2323 19.5263 19.2323C21.1134 19.2323 22.4 20.5189 22.4 22.106V22.75H23.6V22.106C23.6 19.8562 21.7762 18.0323 19.5263 18.0323Z" fill="black"/> </svg>