<svg width="24" height="24" viewBox="0 0 24 24" fill="none" xmlns="http://www.w3.org/2000/svg"> <path fill-rule="evenodd" clip-rule="evenodd" d="M6.52773 1.33789H17.4717C17.6362 1.33769 17.7935 1.405 17.907 1.5241C18.0204 1.64319 18.08 1.80363 18.0717 1.96789V22.2659C18.0717 22.5973 17.8031 22.8659 17.4717 22.8659H6.52773C6.19636 22.8659 5.92773 22.5973 5.92773 22.2659V1.93789C5.92773 1.60652 6.19636 1.33789 6.52773 1.33789ZM10.9081 19.6879C10.9059 20.2895 11.3906 20.7795 11.9921 20.7839C12.5936 20.7883 13.0854 20.3054 13.092 19.7039C13.0936 19.4127 12.9795 19.1328 12.7747 18.9257C12.5699 18.7187 12.2913 18.6015 12 18.5999C11.3985 18.5999 10.9103 19.0864 10.9081 19.6879ZM16.848 21.6419H7.15195V2.59189H16.848V21.6419ZM13.0978 4.1339H10.9078V5.3819H13.0978V4.1339Z" fill="black"/> </svg>