<svg width="24" height="24" viewBox="0 0 24 24" fill="none" xmlns="http://www.w3.org/2000/svg"> <path d="M17.1577 6.98027L12.9416 11.0575L11.5815 9.96141C11.3693 9.79041 11.0685 9.7839 10.8491 9.94555L4.64453 14.517C4.37775 14.7135 4.32082 15.0891 4.51738 15.3559C4.71394 15.6227 5.08955 15.6796 5.35633 15.4831L11.1886 11.186L12.6012 12.3244C12.8369 12.5143 13.1772 12.4989 13.3948 12.2885L18.2524 7.591L18.1293 8.94571C18.0993 9.27572 18.3425 9.56757 18.6725 9.59757C19.0025 9.62757 19.2943 9.38436 19.3243 9.05435L19.5971 6.05435C19.6142 5.86583 19.5414 5.68027 19.4006 5.55374C19.2598 5.42721 19.0675 5.37456 18.8819 5.41168L15.8819 6.01168C15.5569 6.07667 15.3462 6.39277 15.4112 6.7177C15.4762 7.04264 15.7923 7.25337 16.1172 7.18838L17.1577 6.98027Z" fill="black"/> <path fill-rule="evenodd" clip-rule="evenodd" d="M0.400391 2.40005C0.400391 2.06868 0.66902 1.80005 1.00039 1.80005H23.0004C23.3318 1.80005 23.6004 2.06868 23.6004 2.40005C23.6004 2.73142 23.3318 3.00005 23.0004 3.00005H22.6004V18C22.6004 18.3314 22.3318 18.6 22.0004 18.6H18.4489L21.4247 21.5758C21.659 21.8101 21.659 22.19 21.4247 22.4243C21.1903 22.6586 20.8104 22.6586 20.5761 22.4243L16.7519 18.6H12.6004V22C12.6004 22.3314 12.3318 22.6 12.0004 22.6C11.669 22.6 11.4004 22.3314 11.4004 22V18.6H7.24892L3.42465 22.4243C3.19034 22.6586 2.81044 22.6586 2.57613 22.4243C2.34181 22.19 2.34181 21.8101 2.57613 21.5758L5.55186 18.6H2.00039C1.66902 18.6 1.40039 18.3314 1.40039 18V3.00005H1.00039C0.66902 3.00005 0.400391 2.73142 0.400391 2.40005ZM21.4004 17.4V3.00005H2.60039V17.4L12.0004 17.4L21.4004 17.4Z" fill="black"/> </svg>