<svg width="24" height="24" viewBox="0 0 24 24" fill="none" xmlns="http://www.w3.org/2000/svg"> <path d="M15.8996 2.99998C15.8996 2.50292 15.4967 2.09998 14.9996 2.09998C14.5026 2.09998 14.0996 2.50292 14.0996 2.99998V22C14.0996 22.497 14.5026 22.9 14.9996 22.9C15.4967 22.9 15.8996 22.497 15.8996 22V2.99998Z" fill="black"/> <path d="M9.89961 12C9.89961 11.5029 9.49667 11.1 8.99961 11.1C8.50255 11.1 8.09961 11.5029 8.09961 12L8.09961 22C8.09961 22.497 8.50255 22.9 8.99961 22.9C9.49667 22.9 9.89961 22.497 9.89961 22L9.89961 12Z" fill="black"/> <path d="M3.89961 16C3.89961 15.5029 3.49667 15.1 2.99961 15.1C2.50255 15.1 2.09961 15.5029 2.09961 16V22C2.09961 22.497 2.50255 22.9 2.99961 22.9C3.49667 22.9 3.89961 22.497 3.89961 22V16Z" fill="black"/> <path d="M20.9996 11.1C21.4967 11.1 21.8996 11.5029 21.8996 12L21.8996 22C21.8996 22.497 21.4967 22.9 20.9996 22.9C20.5026 22.9 20.0996 22.497 20.0996 22V12C20.0996 11.5029 20.5026 11.1 20.9996 11.1Z" fill="black"/> </svg>