<svg width="24" height="24" viewBox="0 0 24 24" fill="none" xmlns="http://www.w3.org/2000/svg"> <path d="M2.5999 2.60002H8.9999V1.40002H2.4999C1.89239 1.40002 1.3999 1.89251 1.3999 2.50002V9.00002H2.5999V2.60002Z" fill="black"/> <path d="M21.4 2.60002H15V1.40002H21.5C22.1075 1.40002 22.6 1.89251 22.6 2.50002V9.00002H21.4V2.60002Z" fill="black"/> <path d="M1.3999 15V21.5C1.3999 22.1075 1.89239 22.6 2.4999 22.6H8.9999V21.4H2.5999V15H1.3999Z" fill="black"/> <path d="M21.4 21.4V15H22.6V21.5C22.6 22.1075 22.1075 22.6 21.5 22.6H15V21.4H21.4Z" fill="black"/> <path d="M1.3999 12.6001H22.5999V11.4001H1.3999V12.6001Z" fill="black"/> </svg>