<svg width="24" height="24" viewBox="0 0 24 24" fill="none" xmlns="http://www.w3.org/2000/svg"> <path d="M8.97683 4.70138C10.7475 3.96792 12.7245 3.90321 14.5394 4.51928C15.9221 4.98864 17.1389 5.82876 18.0637 6.93626L16 9H21V4L18.9152 6.08476C17.8587 4.8497 16.4834 3.91193 14.9251 3.38296C12.8346 2.67331 10.5573 2.74786 8.51761 3.59272C6.47793 4.43758 4.81495 5.99514 3.83849 7.97519C2.86204 9.95525 2.63871 12.2228 3.21011 14.3553C3.78151 16.4878 5.10868 18.3398 6.94434 19.5664C8.78001 20.7929 10.999 21.3103 13.1878 21.0222C15.3767 20.734 17.3861 19.6599 18.8418 18.0001C19.5681 17.1718 20.1318 16.226 20.5144 15.2118L19.3916 14.7883C19.0595 15.6687 18.5701 16.4898 17.9396 17.2088C16.6759 18.6498 14.9314 19.5823 13.0312 19.8324C11.131 20.0826 9.20463 19.6334 7.61103 18.5686C6.01743 17.5038 4.86527 15.896 4.36922 14.0447C3.87317 12.1934 4.06705 10.2249 4.91474 8.50594C5.76243 6.78699 7.20612 5.43483 8.97683 4.70138Z" fill="black"/> </svg>