<svg width="24" height="24" viewBox="0 0 24 24" fill="none" xmlns="http://www.w3.org/2000/svg"> <path fill-rule="evenodd" clip-rule="evenodd" d="M11.6889 2.4222V0H12.8597V2.4222H11.6889ZM4.78563 12.9186C4.78563 8.78272 8.13842 5.42994 12.2743 5.42994C16.4101 5.42994 19.7629 8.78273 19.7629 12.9186V20.4071H4.78563V12.9186ZM3.6149 20.4071V12.9186C3.6149 8.13614 7.49184 4.25921 12.2743 4.25921C17.0567 4.25921 20.9337 8.13615 20.9337 12.9186V20.4071H21.8612C22.2407 20.4071 22.5484 20.7147 22.5484 21.0942V23.3128C22.5484 23.6923 22.2407 24 21.8612 24H2.68717C2.30765 24 2 23.6923 2 23.3128V21.0942C2 20.7147 2.30766 20.4071 2.68717 20.4071H3.6149ZM12.3048 8.6624L12.3707 8.65141L12.1782 7.49661L12.1123 7.50759C9.07262 8.01421 6.8447 10.6442 6.8447 13.7258H8.01544C8.01544 11.2165 9.8296 9.07493 12.3048 8.6624ZM2.17149 4.45075L3.7863 6.06555L4.61413 5.23772L2.99933 3.62291L2.17149 4.45075ZM22.3766 4.45075L20.7618 6.06555L19.934 5.23772L21.5488 3.62291L22.3766 4.45075ZM3.17073 22.8293V21.5778H21.3776V22.8293H3.17073Z" fill="black"/> </svg>