<svg width="24" height="24" viewBox="0 0 24 24" fill="none" xmlns="http://www.w3.org/2000/svg"> <path d="M15.9699 0.988684C15.6365 1.078 15.4387 1.42068 15.528 1.75409L16.1206 3.96483C16.2099 4.29824 16.5527 4.49612 16.8861 4.40681C17.2195 4.31749 17.4174 3.97481 17.328 3.6414L17.1564 3.00103C17.2268 3.04142 17.2966 3.08262 17.366 3.1246C20.3698 4.943 22.375 8.23938 22.375 12.0033C22.375 17.7312 17.7301 22.375 12 22.375C6.26987 22.375 1.625 17.7312 1.625 12.0033C1.625 9.02847 2.87697 6.34697 4.88475 4.45486C6.7428 2.70385 9.24544 1.63154 12 1.63154C12.3452 1.63154 12.625 1.35172 12.625 1.00654C12.625 0.661364 12.3452 0.381542 12 0.381542C8.91432 0.381542 6.10824 1.58425 4.02746 3.54516C1.77956 5.66356 0.375 8.66992 0.375 12.0033C0.375 18.4219 5.57986 23.625 12 23.625C18.4201 23.625 23.625 18.4219 23.625 12.0033C23.625 7.78401 21.3756 4.09065 18.0133 2.05527C17.8891 1.98006 17.7633 1.9071 17.636 1.83645L18.5049 1.6037C18.8384 1.51439 19.0362 1.1717 18.9468 0.838293C18.8575 0.504883 18.5147 0.307004 18.1813 0.396318L15.9699 0.988684Z" fill="black"/> <path fill-rule="evenodd" clip-rule="evenodd" d="M7.25 5.37501C6.21447 5.37501 5.375 6.21448 5.375 7.25001V16.75C5.375 17.7855 6.21447 18.625 7.25 18.625H16.75C17.7855 18.625 18.625 17.7855 18.625 16.75V7.25001C18.625 6.21448 17.7855 5.37501 16.75 5.37501H7.25ZM6.625 7.25001C6.625 6.90483 6.90482 6.62501 7.25 6.62501H9.375V8.00001C9.375 8.34519 9.65482 8.62501 10 8.62501H14C14.3452 8.62501 14.625 8.34519 14.625 8.00001V6.62501H16.75C17.0952 6.62501 17.375 6.90483 17.375 7.25001V16.75C17.375 17.0952 17.0952 17.375 16.75 17.375H7.25C6.90482 17.375 6.625 17.0952 6.625 16.75V7.25001ZM13.375 6.62501H10.625V7.37501H13.375V6.62501Z" fill="black"/> </svg>