<svg width="24" height="24" viewBox="0 0 24 24" fill="none" xmlns="http://www.w3.org/2000/svg"> <path fill-rule="evenodd" clip-rule="evenodd" d="M9.46072 4.51922C11.2756 3.90314 13.2526 3.96786 15.0233 4.70132C16.794 5.43477 18.2377 6.78693 19.0854 8.50588C19.9331 10.2248 20.127 12.1933 19.6309 14.0446C19.1348 15.8959 17.9827 17.5037 16.3891 18.5686C14.7955 19.6334 12.8691 20.0825 10.9689 19.8324C9.06873 19.5822 7.32427 18.6498 6.06056 17.2088C5.43001 16.4898 4.94063 15.6687 4.6085 14.7882L3.48573 15.2117C3.86829 16.2259 4.43203 17.1718 5.15835 18C6.61401 19.6599 8.62346 20.7339 10.8123 21.0221C13.0012 21.3103 15.2201 20.7929 17.0558 19.5663C18.8914 18.3398 20.2186 16.4877 20.79 14.3552C21.3614 12.2227 21.1381 9.95519 20.1616 7.97513C19.1852 5.99508 17.5222 4.43752 15.4825 3.59266C13.4428 2.7478 11.1656 2.67325 9.075 3.3829C7.51671 3.91186 6.14138 4.84964 5.08489 6.0847L3.00012 3.99994V8.99994H8.00012L5.93638 6.9362C6.86126 5.8287 8.07803 4.98858 9.46072 4.51922ZM12.0257 12.4889V6.79999H11V13.0781L16.3832 16.2182L16.9 15.3322L12.0257 12.4889Z" fill="black"/> </svg>