<svg width="24" height="24" viewBox="0 0 24 24" fill="none" xmlns="http://www.w3.org/2000/svg"> <path d="M18 1.40002C16.0118 1.40002 14.4 3.0118 14.4 5.00002C14.4 5.44737 14.4816 5.87565 14.6307 6.27081L8.0605 10.1034C7.42548 9.08089 6.29226 8.40002 5.00002 8.40002C3.0118 8.40002 1.40002 10.0118 1.40002 12C1.40002 13.9882 3.0118 15.6 5.00002 15.6C6.29227 15.6 7.42549 14.9192 8.06051 13.8966L14.6307 17.7292C14.4816 18.1244 14.4 18.5527 14.4 19C14.4 20.9882 16.0118 22.6 18 22.6C19.9882 22.6 21.6 20.9882 21.6 19C21.6 17.0118 19.9882 15.4 18 15.4C16.8896 15.4 15.8965 15.9028 15.2362 16.6931L8.51673 12.7735C8.57128 12.5243 8.60002 12.2655 8.60002 12C8.60002 11.7345 8.57128 11.4757 8.51673 11.2266L15.2362 7.30689C15.8965 8.09724 16.8896 8.60002 18 8.60002C19.9882 8.60002 21.6 6.98825 21.6 5.00002C21.6 3.0118 19.9882 1.40002 18 1.40002Z" fill="black"/> </svg>