<svg width="24" height="24" viewBox="0 0 24 24" fill="none" xmlns="http://www.w3.org/2000/svg"> <path d="M15.9167 7.17108H17V8.64477H15.5L14.5833 11.5H13.4167L12 6.98687L10.5833 11.5H9.33333L8.5 8.64477H7V7.17108H8.08333L7.25 4.50003H8.75L10 9.1974L11.4167 4.50003H12.5833L14 9.1974L15.25 4.50003H16.75L15.9167 7.17108Z" fill="black"/> <path d="M6.40039 15C6.40039 14.6687 6.66902 14.4 7.00039 14.4H17.0004C17.3318 14.4 17.6004 14.6687 17.6004 15C17.6004 15.3314 17.3318 15.6 17.0004 15.6H7.00039C6.66902 15.6 6.40039 15.3314 6.40039 15Z" fill="black"/> <path d="M7.00039 18.4C6.66902 18.4 6.40039 18.6687 6.40039 19C6.40039 19.3314 6.66902 19.6 7.00039 19.6H13.0004C13.3318 19.6 13.6004 19.3314 13.6004 19C13.6004 18.6687 13.3318 18.4 13.0004 18.4H7.00039Z" fill="black"/> <path fill-rule="evenodd" clip-rule="evenodd" d="M4.00039 0.400024C3.11673 0.400024 2.40039 1.11637 2.40039 2.00002V22C2.40039 22.8837 3.11674 23.6 4.00039 23.6H20.0004C20.884 23.6 21.6004 22.8837 21.6004 22V2.00002C21.6004 1.11637 20.884 0.400024 20.0004 0.400024H4.00039ZM3.60039 2.00002C3.60039 1.77911 3.77948 1.60002 4.00039 1.60002H20.0004C20.2213 1.60002 20.4004 1.77911 20.4004 2.00002V22C20.4004 22.2209 20.2213 22.4 20.0004 22.4H4.00039C3.77948 22.4 3.60039 22.2209 3.60039 22V2.00002Z" fill="black"/> </svg>