<svg width="24" height="24" viewBox="0 0 24 24" fill="none" xmlns="http://www.w3.org/2000/svg"> <path fill-rule="evenodd" clip-rule="evenodd" d="M0.603425 1.55013C0.851899 1.33089 1.23106 1.35458 1.4503 1.60306L3.4503 3.86973C3.54702 3.97935 3.6004 4.12051 3.6004 4.2667V18.4H23.0004C23.3318 18.4 23.6004 18.6687 23.6004 19C23.6004 19.3314 23.3318 19.6 23.0004 19.6H20.8782C21.2653 20.0403 21.5 20.6177 21.5 21.25C21.5 22.6307 20.3807 23.75 19 23.75C17.6193 23.75 16.5 22.6307 16.5 21.25C16.5 20.6177 16.7347 20.0403 17.1218 19.6H9.87821C10.2653 20.0403 10.5 20.6177 10.5 21.25C10.5 22.6307 9.38071 23.75 8 23.75C6.61929 23.75 5.5 22.6307 5.5 21.25C5.5 20.6177 5.73473 20.0403 6.12179 19.6H3.0004C2.66903 19.6 2.4004 19.3314 2.4004 19V4.49356L0.550495 2.397C0.331253 2.14853 0.35495 1.76937 0.603425 1.55013ZM8 19.75C7.17157 19.75 6.5 20.4216 6.5 21.25C6.5 22.0785 7.17157 22.75 8 22.75C8.82843 22.75 9.5 22.0785 9.5 21.25C9.5 20.4216 8.82843 19.75 8 19.75ZM17.5 21.25C17.5 20.4216 18.1716 19.75 19 19.75C19.8284 19.75 20.5 20.4216 20.5 21.25C20.5 22.0785 19.8284 22.75 19 22.75C18.1716 22.75 17.5 22.0785 17.5 21.25Z" fill="black"/> <path fill-rule="evenodd" clip-rule="evenodd" d="M5.375 5.25003C5.375 4.2145 6.21447 3.37503 7.25 3.37503H20.75C21.7855 3.37503 22.625 4.2145 22.625 5.25003V14.75C22.625 15.7856 21.7855 16.625 20.75 16.625H7.25C6.21447 16.625 5.375 15.7856 5.375 14.75V5.25003ZM7.25 4.62503C6.90482 4.62503 6.625 4.90485 6.625 5.25003V14.75C6.625 15.0952 6.90482 15.375 7.25 15.375H20.75C21.0952 15.375 21.375 15.0952 21.375 14.75V5.25003C21.375 4.90485 21.0952 4.62503 20.75 4.62503H17.625V7.00003C17.625 7.34521 17.3452 7.62503 17 7.62503H11C10.6548 7.62503 10.375 7.34521 10.375 7.00003V4.62503H7.25ZM11.625 4.62503V6.37503H16.375V4.62503H11.625Z" fill="black"/> </svg>