<svg width="24" height="24" viewBox="0 0 24 24" fill="none" xmlns="http://www.w3.org/2000/svg"> <path fill-rule="evenodd" clip-rule="evenodd" d="M11.9999 9.39941C10.564 9.39941 9.3999 10.5635 9.3999 11.9994C9.3999 13.4354 10.564 14.5994 11.9999 14.5994C13.4358 14.5994 14.5999 13.4354 14.5999 11.9994C14.5999 10.5635 13.4358 9.39941 11.9999 9.39941ZM10.5999 11.9994C10.5999 11.2262 11.2267 10.5994 11.9999 10.5994C12.7731 10.5994 13.3999 11.2262 13.3999 11.9994C13.3999 12.7726 12.7731 13.3994 11.9999 13.3994C11.2267 13.3994 10.5999 12.7726 10.5999 11.9994Z" fill="black"/> <path fill-rule="evenodd" clip-rule="evenodd" d="M11.4142 1.61766C11.4289 1.55209 11.4543 1.49058 11.4885 1.43506C11.5268 1.37271 11.5754 1.31921 11.6311 1.27595C11.7328 1.19665 11.8607 1.14941 11.9997 1.14941L12.0055 1.14944C12.0892 1.15024 12.1688 1.16817 12.2409 1.19989L15.8297 2.6354C16.8355 3.03771 16.8355 4.46144 15.8297 4.86375L12.5997 6.15576V6.21233C12.6419 6.23675 12.6831 6.26396 12.7228 6.29395L18.7798 10.8656H20.7999C21.794 10.8656 22.5999 11.6714 22.5999 12.6656V21.3C22.5999 22.2942 21.794 23.1 20.7999 23.1H3.1999C2.20579 23.1 1.3999 22.2942 1.3999 21.3V12.6656C1.3999 11.6714 2.20579 10.8656 3.1999 10.8656H5.21986L11.277 6.29395C11.3166 6.26407 11.3576 6.23696 11.3997 6.21261V5.76681C11.3993 5.75541 11.3993 5.74404 11.3997 5.73271V1.76644C11.3982 1.71717 11.4029 1.66722 11.4142 1.61766ZM12.5997 2.63583V4.86332L15.384 3.74957L12.5997 2.63583ZM11.9999 7.25176L6.0208 11.7645V21.9H9.3999V17.0994C9.3999 16.4367 9.93716 15.8994 10.5999 15.8994H13.3999C14.0626 15.8994 14.5999 16.4367 14.5999 17.0994V21.9H17.9783V11.764L11.9999 7.25176ZM19.1783 12.0656V21.9H20.7999C21.1313 21.9 21.3999 21.6314 21.3999 21.3V12.6656C21.3999 12.3342 21.1313 12.0656 20.7999 12.0656H19.1783ZM3.1999 12.0656H4.8208V21.9H3.1999C2.86853 21.9 2.5999 21.6314 2.5999 21.3V12.6656C2.5999 12.3342 2.86853 12.0656 3.1999 12.0656ZM13.3999 17.0994V21.9H10.5999V17.0994H13.3999Z" fill="black"/> </svg>