<svg width="24" height="24" viewBox="0 0 24 24" fill="none" xmlns="http://www.w3.org/2000/svg"> <path fill-rule="evenodd" clip-rule="evenodd" d="M7.29536 16.5H5.24951V11.5H7.29536C9.03897 11.5 10.0619 12.65 10.0619 14C10.0619 15.35 9.04672 16.5 7.29536 16.5ZM6.50492 12.4714V15.5286H7.17912C8.24853 15.5286 8.76774 14.7929 8.76774 14C8.76774 13.2071 8.24853 12.4714 7.17912 12.4714H6.50492Z" fill="black"/> <path fill-rule="evenodd" clip-rule="evenodd" d="M13.686 16.5H15.0931L13.1347 11.5H11.7935L9.84326 16.5H11.2504L11.4478 15.8929H13.4886L13.686 16.5ZM11.7441 14.9857L12.4682 12.7643L13.1923 14.9857H11.7441Z" fill="black"/> <path d="M17.8591 11.5L16.8569 13.4714L15.6993 11.5H14.2388L16.1655 14.6143V16.5H17.5639V14.6143L19.2497 11.5H17.8591Z" fill="black"/> <path fill-rule="evenodd" clip-rule="evenodd" d="M0.398926 5.00002C0.398926 3.56408 1.56299 2.40002 2.99893 2.40002H20.9989C22.4349 2.40002 23.5989 3.56408 23.5989 5.00002V6.96547C23.5996 6.9769 23.5999 6.98841 23.5999 6.99999C23.5999 7.01158 23.5996 7.02309 23.5989 7.03452V19C23.5989 20.436 22.4349 21.6 20.9989 21.6H2.99893C1.56298 21.6 0.398926 20.436 0.398926 19V5.00002ZM22.3989 5.00002V6.39999H1.59893V5.00002C1.59893 4.22683 2.22573 3.60002 2.99893 3.60002H20.9989C21.7721 3.60002 22.3989 4.22683 22.3989 5.00002ZM1.59893 19V7.59999H22.3989V19C22.3989 19.7732 21.7721 20.4 20.9989 20.4H2.99893C2.22573 20.4 1.59893 19.7732 1.59893 19Z" fill="black"/> </svg>