<svg width="24" height="24" viewBox="0 0 24 24" fill="none" xmlns="http://www.w3.org/2000/svg"> <path d="M20.3705 6.60002H20.5516L19.5759 7.57574L20.4245 8.42427L22.8487 6.00001L20.4245 3.57574L19.5759 4.42427L20.5517 5.40002H20.3705C17.297 5.40002 14.4572 7.04022 12.9213 9.70241L12.6927 10.0986L13.3854 11.2993L13.9607 10.3021C15.2823 8.01135 17.7259 6.60002 20.3705 6.60002Z" fill="black"/> <path d="M10.0393 14.698L10.6147 13.7006L11.3073 14.9013L11.0787 15.2976C9.5428 17.9598 6.70296 19.6 3.62949 19.6H2V18.4H3.62949C6.2741 18.4 8.71769 16.9887 10.0393 14.698Z" fill="black"/> <path d="M2 6.60004H3.62949C6.2741 6.60004 8.71769 8.01137 10.0393 10.3021L12.9213 15.2976C14.4572 17.9598 17.297 19.6 20.3705 19.6H20.5516L19.5759 20.5757L20.4245 21.4243L22.8487 19L20.4245 16.5757L19.5759 17.4243L20.5517 18.4H20.3705C17.7259 18.4 15.2823 16.9887 13.9607 14.698L11.0787 9.70242C9.5428 7.04023 6.70296 5.40004 3.62949 5.40004L2 5.40004V6.60004Z" fill="black"/> </svg>