<svg width="24" height="24" viewBox="0 0 24 24" fill="none" xmlns="http://www.w3.org/2000/svg"> <path fill-rule="evenodd" clip-rule="evenodd" d="M12.6581 1.30148C12.0706 0.899506 11.2966 0.899505 10.7091 1.30148L2.75126 6.7463C2.28112 7.06798 2 7.60095 2 8.17061V21.2742C2 22.2273 2.77266 23 3.72579 23H19.6414C20.5945 23 21.3672 22.2273 21.3672 21.2742V8.17061C21.3672 7.60095 21.0861 7.06798 20.6159 6.7463L12.6581 1.30148ZM11.3588 2.25102C11.5546 2.11703 11.8126 2.11703 12.0084 2.25102L19.9663 7.69584C20.123 7.80307 20.2167 7.98072 20.2167 8.17061V21.2742C20.2167 21.5919 19.9591 21.8495 19.6414 21.8495H14.6558V18.5896C14.6558 17.7424 13.969 17.0556 13.1218 17.0556H10.2454C9.39822 17.0556 8.71141 17.7424 8.71141 18.5896V21.8495H3.72579C3.40808 21.8495 3.15053 21.5919 3.15053 21.2742V8.17061C3.15053 7.98072 3.24423 7.80307 3.40095 7.69584L11.3588 2.25102ZM9.86194 21.8495H13.5053V18.5896C13.5053 18.3778 13.3336 18.2061 13.1218 18.2061H10.2454C10.0336 18.2061 9.86194 18.3778 9.86194 18.5896V21.8495Z" fill="black"/> </svg>