<svg width="24" height="24" viewBox="0 0 24 24" fill="none" xmlns="http://www.w3.org/2000/svg"> <path d="M18.8444 6.15559C17.1937 4.22427 14.7398 3 12 3C9.44477 3 7.13825 4.06486 5.5 5.77503C3.95145 7.39156 3 9.58467 3 12H4.2C4.2 9.90621 5.0234 8.00726 6.36655 6.60514C7.78785 5.12145 9.78531 4.2 12 4.2C14.4074 4.2 16.5608 5.28989 17.9929 7.00708L16 9H21V4L18.8444 6.15559Z" fill="black"/> <path d="M5.15559 17.8444C6.80631 19.7757 9.26018 21 12 21C14.5552 21 16.8618 19.9351 18.5 18.225C20.0485 16.6084 21 14.4153 21 12H19.8C19.8 14.0938 18.9766 15.9927 17.6334 17.3949C16.2121 18.8786 14.2147 19.8 12 19.8C9.59255 19.8 7.43925 18.7101 6.00708 16.9929L8 15H3V20L5.15559 17.8444Z" fill="black"/> </svg>