<svg width="24" height="24" viewBox="0 0 24 24" fill="none" xmlns="http://www.w3.org/2000/svg"> <path d="M23.0999 1.90002H9.89999V8.39856H0.899994V20.9984H2.09999V9.59856H9.89999V20.9998H11.1V3.10002H21.8999V9.99994H23.0999V1.90002Z" fill="black"/> <path d="M19.9997 6.60002H12.9998V5.40002H19.9997V6.60002Z" fill="black"/> <path d="M3.5 12.6H8.5V11.4H3.5V12.6Z" fill="black"/> <path d="M12.9998 9.59856H16.4997V8.39856H12.9998V9.59856Z" fill="black"/> <path d="M8.5 15.1H3.5V13.9H8.5V15.1Z" fill="black"/> <path fill-rule="evenodd" clip-rule="evenodd" d="M13.3999 16C13.3999 13.7356 15.2355 11.9 17.4998 11.9C19.7642 11.9 21.5998 13.7356 21.5998 16C21.5998 16.9156 21.2997 17.7611 20.7924 18.4434L23.4242 21.0752L22.5757 21.9238L19.944 19.2921C19.2615 19.7996 18.4157 20.0999 17.4998 20.0999C15.2355 20.0999 13.3999 18.2643 13.3999 16ZM17.4998 13.1C15.8982 13.1 14.5999 14.3984 14.5999 16C14.5999 17.6016 15.8982 18.8999 17.4998 18.8999C19.1014 18.8999 20.3998 17.6016 20.3998 16C20.3998 14.3984 19.1014 13.1 17.4998 13.1Z" fill="black"/> </svg>