<svg width="24" height="24" viewBox="0 0 24 24" fill="none" xmlns="http://www.w3.org/2000/svg"> <path fill-rule="evenodd" clip-rule="evenodd" d="M3.25 1.875C2.21447 1.875 1.375 2.71447 1.375 3.75V20.25C1.375 21.2855 2.21447 22.125 3.25 22.125H20.75C21.7855 22.125 22.625 21.2855 22.625 20.25V3.75C22.625 2.71447 21.7855 1.875 20.75 1.875H3.25ZM2.625 3.75C2.625 3.40482 2.90482 3.125 3.25 3.125H8.375V5.5C8.375 5.84518 8.65482 6.125 9 6.125H15C15.3452 6.125 15.625 5.84518 15.625 5.5V3.125H20.75C21.0952 3.125 21.375 3.40482 21.375 3.75V20.25C21.375 20.5952 21.0952 20.875 20.75 20.875H3.25C2.90482 20.875 2.625 20.5952 2.625 20.25V3.75ZM14.375 3.125H9.625V4.875H14.375V3.125Z" fill="black"/> </svg>