<svg width="24" height="24" viewBox="0 0 24 24" fill="none" xmlns="http://www.w3.org/2000/svg"> <path d="M9.97269 1.39984H11.0271C12.4042 1.39984 13.4745 1.39984 14.3328 1.46996C15.2036 1.54111 15.9088 1.68744 16.5422 2.01021C17.596 2.5471 18.4526 3.40379 18.9895 4.45749C19.3123 5.09095 19.4586 5.79613 19.5298 6.66699C19.5999 7.52522 19.5999 8.59556 19.5999 9.9727V11.027C19.5999 11.9502 19.5999 12.7361 19.5788 13.4121C19.2307 13.3386 18.8698 13.3 18.4999 13.3H18.3816C18.3997 12.6657 18.3999 11.9145 18.3999 10.9998V9.99984C18.3999 8.58981 18.3994 7.56837 18.3338 6.76471C18.2687 5.96805 18.1425 5.43838 17.9203 5.00228C17.4985 4.17437 16.8254 3.50126 15.9975 3.07941C15.5614 2.85721 15.0317 2.73106 14.235 2.66597C13.4314 2.60031 12.4099 2.59984 10.9999 2.59984H9.9999C8.58987 2.59984 7.56843 2.60031 6.76477 2.66597C5.96812 2.73106 5.43844 2.85721 5.00234 3.07941C4.17443 3.50126 3.50132 4.17437 3.07947 5.00228C2.85727 5.43838 2.73112 5.96805 2.66603 6.76471C2.60037 7.56837 2.5999 8.58981 2.5999 9.99984V10.9998C2.5999 12.4099 2.60037 13.4313 2.66603 14.235C2.73112 15.0316 2.85727 15.5613 3.07947 15.9974C3.50132 16.8253 4.17443 17.4984 5.00234 17.9203C5.43844 18.1425 5.96812 18.2686 6.76477 18.3337C7.51048 18.3946 8.44368 18.3994 9.70085 18.3998C9.70022 18.4331 9.6999 18.4665 9.6999 18.5C9.6999 18.8773 9.7401 19.2453 9.81644 19.5998C8.51424 19.5997 7.49253 19.5972 6.66705 19.5297C5.79619 19.4586 5.09102 19.3122 4.45756 18.9895C3.40385 18.4526 2.54716 17.5959 2.01027 16.5422C1.6875 15.9087 1.54117 15.2036 1.47002 14.3327C1.3999 13.4745 1.3999 12.4042 1.3999 11.0271V9.97263C1.3999 8.59552 1.3999 7.52521 1.47002 6.66699C1.54117 5.79613 1.6875 5.09095 2.01027 4.45749C2.54716 3.40379 3.40385 2.5471 4.45756 2.01021C5.09102 1.68744 5.79619 1.54111 6.66705 1.46996C7.52527 1.39984 8.59559 1.39984 9.97269 1.39984Z" fill="black"/> <path fill-rule="evenodd" clip-rule="evenodd" d="M13.3073 20.1999L14.4841 16.6647H15.7487L16.9206 20.1999H15.9196L15.7072 19.5065H14.5231L14.3132 20.1999H13.3073ZM15.4924 18.8034L15.1286 17.6169H15.0993L14.738 18.8034H15.4924Z" fill="black"/> <path fill-rule="evenodd" clip-rule="evenodd" d="M17.2722 20.1999V16.6647H18.6052C18.9665 16.6647 19.2798 16.7355 19.5451 16.8771C19.8104 17.0171 20.0147 17.2206 20.1579 17.4875C20.3011 17.7528 20.3727 18.0677 20.3727 18.4323C20.3727 18.7969 20.3011 19.1118 20.1579 19.3771C20.0163 19.6424 19.8128 19.8459 19.5475 19.9875C19.2839 20.1291 18.973 20.1999 18.6149 20.1999H17.2722ZM18.5807 19.4089C18.7696 19.4089 18.9266 19.3788 19.0519 19.3185C19.1773 19.2567 19.2725 19.1542 19.3376 19.0109C19.4027 18.8677 19.4352 18.6748 19.4352 18.4323C19.4352 18.1882 19.4019 17.9945 19.3351 17.8513C19.27 17.708 19.1732 17.6063 19.0446 17.5461C18.9177 17.4859 18.7549 17.4557 18.5563 17.4557H18.1999V19.4089H18.5807Z" fill="black"/> <path fill-rule="evenodd" clip-rule="evenodd" d="M14.8999 14.4001C12.6355 14.4001 10.7999 16.2357 10.7999 18.5001C10.7999 20.7645 12.6355 22.6001 14.8999 22.6001H18.4999C20.7643 22.6001 22.5999 20.7645 22.5999 18.5001C22.5999 16.2357 20.7643 14.4001 18.4999 14.4001H14.8999ZM11.9999 18.5001C11.9999 16.8985 13.2983 15.6001 14.8999 15.6001H18.4999C20.1015 15.6001 21.3999 16.8985 21.3999 18.5001C21.3999 20.1017 20.1015 21.4001 18.4999 21.4001H14.8999C13.2983 21.4001 11.9999 20.1017 11.9999 18.5001Z" fill="black"/> <path d="M15.9999 5.99994C15.9999 6.55222 15.5522 6.99994 14.9999 6.99994C14.4476 6.99994 13.9999 6.55222 13.9999 5.99994C13.9999 5.44765 14.4476 4.99994 14.9999 4.99994C15.5522 4.99994 15.9999 5.44765 15.9999 5.99994Z" fill="black"/> <path fill-rule="evenodd" clip-rule="evenodd" d="M6.3999 10.4998C6.3999 8.23547 8.23553 6.39984 10.4999 6.39984C12.7643 6.39984 14.5999 8.23547 14.5999 10.4998C14.5999 12.7642 12.7643 14.5998 10.4999 14.5998C8.23553 14.5998 6.3999 12.7642 6.3999 10.4998ZM10.4999 7.59984C8.89828 7.59984 7.5999 8.89822 7.5999 10.4998C7.5999 12.1015 8.89828 13.3998 10.4999 13.3998C12.1015 13.3998 13.3999 12.1015 13.3999 10.4998C13.3999 8.89822 12.1015 7.59984 10.4999 7.59984Z" fill="black"/> </svg>