<svg width="24" height="24" viewBox="0 0 24 24" fill="none" xmlns="http://www.w3.org/2000/svg"> <path d="M15 12C15 13.6569 13.6569 15 12 15C10.3431 15 9 13.6569 9 12C9 10.3431 10.3431 9 12 9C13.6569 9 15 10.3431 15 12Z" fill="black"/> <path fill-rule="evenodd" clip-rule="evenodd" d="M21.9999 12C20.5443 7.33923 16.6167 4 12 4C7.38322 4 3.45561 7.33923 2 12C3.45561 16.6608 7.38322 20 12 20C16.6167 20 20.5443 16.6608 21.9999 12ZM17 12C17 14.7614 14.7614 17 12 17C9.23858 17 7 14.7614 7 12C7 9.23858 9.23858 7 12 7C14.7614 7 17 9.23858 17 12Z" fill="black"/> </svg>