<svg width="24" height="24" viewBox="0 0 24 24" fill="none" xmlns="http://www.w3.org/2000/svg"> <path d="M19.5994 1.39984H1.39941V19.5998H9.81595C9.73961 19.2453 9.69941 18.8773 9.69941 18.5C9.69941 18.4665 9.69973 18.4331 9.70036 18.3998H2.59941V11.2484L4.99941 8.84836L9.49941 13.3484L11.4994 11.3484L13.6117 13.4607C14.0235 13.3558 14.455 13.3 14.8994 13.3H15.1481L11.4994 9.65131L9.49941 11.6513L4.99941 7.15131L2.59941 9.55131V2.59984H18.3994V13.3H18.4994C18.8768 13.3 19.2448 13.3402 19.5994 13.4166V1.39984Z" fill="black"/> <path fill-rule="evenodd" clip-rule="evenodd" d="M14.4994 4.39984C13.3396 4.39984 12.3994 5.34004 12.3994 6.49984C12.3994 7.65964 13.3396 8.59984 14.4994 8.59984C15.6592 8.59984 16.5994 7.65964 16.5994 6.49984C16.5994 5.34004 15.6592 4.39984 14.4994 4.39984ZM13.5994 6.49984C13.5994 6.00278 14.0024 5.59984 14.4994 5.59984C14.9965 5.59984 15.3994 6.00278 15.3994 6.49984C15.3994 6.9969 14.9965 7.39984 14.4994 7.39984C14.0024 7.39984 13.5994 6.9969 13.5994 6.49984Z" fill="black"/> <path fill-rule="evenodd" clip-rule="evenodd" d="M14.4836 16.6647L13.3068 20.1999H14.3127L14.5226 19.5065H15.7067L15.9191 20.1999H16.9201L15.7482 16.6647H14.4836ZM15.1281 17.6169L15.4919 18.8034H14.7375L15.0988 17.6169H15.1281Z" fill="black"/> <path fill-rule="evenodd" clip-rule="evenodd" d="M17.2717 16.6647V20.1999H18.6144C18.9725 20.1999 19.2834 20.1291 19.5471 19.9875C19.8124 19.8459 20.0158 19.6424 20.1574 19.3771C20.3006 19.1118 20.3723 18.7969 20.3723 18.4323C20.3723 18.0677 20.3006 17.7528 20.1574 17.4875C20.0142 17.2206 19.8099 17.0171 19.5446 16.8771C19.2793 16.7355 18.966 16.6647 18.6047 16.6647H17.2717ZM19.0515 19.3185C18.9261 19.3788 18.7691 19.4089 18.5803 19.4089H18.1994V17.4557H18.5558C18.7544 17.4557 18.9172 17.4859 19.0441 17.5461C19.1727 17.6063 19.2696 17.708 19.3347 17.8513C19.4014 17.9945 19.4348 18.1882 19.4348 18.4323C19.4348 18.6748 19.4022 18.8677 19.3371 19.0109C19.272 19.1542 19.1768 19.2567 19.0515 19.3185Z" fill="black"/> <path fill-rule="evenodd" clip-rule="evenodd" d="M10.7994 18.5001C10.7994 16.2357 12.635 14.4001 14.8994 14.4001H18.4994C20.7638 14.4001 22.5994 16.2357 22.5994 18.5001C22.5994 20.7645 20.7638 22.6001 18.4994 22.6001H14.8994C12.635 22.6001 10.7994 20.7645 10.7994 18.5001ZM14.8994 15.6001C13.2978 15.6001 11.9994 16.8985 11.9994 18.5001C11.9994 20.1017 13.2978 21.4001 14.8994 21.4001H18.4994C20.101 21.4001 21.3994 20.1017 21.3994 18.5001C21.3994 16.8985 20.101 15.6001 18.4994 15.6001H14.8994Z" fill="black"/> </svg>