<svg width="24" height="24" viewBox="0 0 24 24" fill="none" xmlns="http://www.w3.org/2000/svg"> <path d="M23.1094 6.47177L21.9094 6.47177V2.93909L19.2409 5.60763L18.3924 4.7591L21.0609 2.09056H17.5282V0.890564H23.1094V6.47177Z" fill="black"/> <path d="M6.47183 0.890711L6.47183 2.09071L2.93915 2.09071L5.60769 4.75925L4.75916 5.60778L2.09063 2.93924V6.47191L0.890625 6.47191V0.890712L6.47183 0.890711Z" fill="black"/> <path fill-rule="evenodd" clip-rule="evenodd" d="M9.57576 5.42438L10.4243 4.57585L12 6.15159L13.5758 4.57585L14.4243 5.42438L12.8487 7.00001H17V17H7.00003V7.00001H11.1514L9.57576 5.42438ZM12.5 15.8H15.8V8.20001H12.5V15.8ZM11.5 8.20001V15.8H8.20003V8.20001H11.5Z" fill="black"/> <path d="M17.5282 21.9093L17.5282 23.1093H23.1094V17.5281H21.9094V21.0608L19.2409 18.3922L18.3924 19.2408L21.0609 21.9093H17.5282Z" fill="black"/> <path d="M2.09064 17.5095L0.890635 17.5095L0.890635 23.0907H6.47184L6.47184 21.8907H2.93916L5.6077 19.2221L4.75917 18.3736L2.09064 21.0421L2.09064 17.5095Z" fill="black"/> </svg>